<svg id="Capa_1" enable-background="new 0 0 512 512" height="512" viewBox="0 0 512 512" width="512" xmlns="http://www.w3.org/2000/svg"><path d="m173.899 31.804h-8.707l-4.397-4h-115.711c-24.859-.001-45.084 20.224-45.084 45.083v366.226c0 24.859 20.225 45.084 45.084 45.084h115.711l6.348-4h6.755v-448.393z" fill="#406bd4"/><path d="m466.916 27.803h-115.711l-4.523 4h-5.141v448.393h4.141l5.523 4h115.711c24.859 0 45.084-20.225 45.084-45.084v-366.225c0-24.859-20.225-45.084-45.084-45.084z" fill="#c20044"/><path d="m160.795 27.803h190.409v456.394h-190.409z" fill="#f0f9ff"/><path d="m256 27.803h95.205v456.394h-95.205z" fill="#cee5f5"/></svg>