<?xml version="1.0" encoding="iso-8859-1"?>
<!-- Generator: Adobe Illustrator 18.0.0, SVG Export Plug-In . SVG Version: 6.00 Build 0)  -->
<!DOCTYPE svg PUBLIC "-//W3C//DTD SVG 1.1//EN" "http://www.w3.org/Graphics/SVG/1.1/DTD/svg11.dtd">
<svg version="1.1" id="Capa_1" xmlns="http://www.w3.org/2000/svg" xmlns:xlink="http://www.w3.org/1999/xlink" x="0px" y="0px"
	 viewBox="0 0 233.591 233.591" style="enable-background:new 0 0 233.591 233.591;" xml:space="preserve">
<g>
	<path d="M172.247,38.723c-1.193,0-2.388,0.036-3.582,0.108C158.869,15.688,135.365,0,109.444,0
		C74.109,0,45.362,28.178,45.362,62.813c0,0.122,0,0.243,0.001,0.365C21.662,64.96,2.93,84.454,2.93,108.16
		c0,24.875,20.625,45.113,45.976,45.113h123.34c32.209,0,58.414-25.694,58.414-57.275C230.661,64.416,204.456,38.723,172.247,38.723
		z M172.247,138.273H48.907c-17.08,0-30.976-13.509-30.976-30.113c0-16.605,13.896-30.115,30.976-30.115
		c1.054,0,2.226,0.08,3.687,0.25c2.315,0.274,4.624-0.55,6.249-2.222c1.625-1.671,2.379-4.003,2.043-6.31
		c-0.347-2.379-0.523-4.718-0.523-6.951C60.362,36.449,82.38,15,109.444,15c21.54,0,40.878,14.036,47.027,34.132
		c1.102,3.599,4.7,5.828,8.412,5.202c2.42-0.406,4.897-0.611,7.363-0.611c23.938,0,43.414,18.965,43.414,42.275
		C215.661,119.309,196.185,138.273,172.247,138.273z"/>
	<path d="M39.601,196.751l21.486-21.486c2.929-2.929,2.929-7.678,0-10.606c-2.929-2.929-7.678-2.929-10.606,0l-21.486,21.486
		c-2.929,2.929-2.929,7.678,0,10.607c1.464,1.464,3.384,2.197,5.303,2.197C36.217,198.947,38.136,198.215,39.601,196.751z"/>
	<path d="M85.439,196.751l21.484-21.486c2.929-2.929,2.928-7.678-0.001-10.607c-2.93-2.929-7.678-2.928-10.607,0.001l-21.484,21.486
		c-2.929,2.929-2.928,7.678,0,10.607c1.465,1.464,3.384,2.196,5.303,2.196C82.055,198.947,83.975,198.215,85.439,196.751z"/>
	<path d="M131.275,196.751l21.484-21.486c2.929-2.929,2.928-7.678,0-10.607c-2.93-2.929-7.678-2.928-10.607,0.001l-21.484,21.486
		c-2.929,2.929-2.928,7.678,0,10.607c1.465,1.464,3.384,2.196,5.303,2.196C127.891,198.947,129.811,198.215,131.275,196.751z"/>
	<path d="M187.99,164.658l-21.486,21.486c-2.929,2.929-2.929,7.678,0,10.607c1.464,1.464,3.384,2.197,5.303,2.197
		c1.919,0,3.839-0.732,5.303-2.197l21.486-21.486c2.929-2.929,2.929-7.678,0-10.606C195.668,161.729,190.919,161.729,187.99,164.658
		z"/>
	<path d="M53.628,199.301l-21.484,21.486c-2.929,2.929-2.928,7.678,0,10.607c1.465,1.464,3.384,2.196,5.303,2.196
		c1.92,0,3.839-0.732,5.304-2.197l21.484-21.486c2.929-2.929,2.928-7.678-0.001-10.607
		C61.306,196.372,56.557,196.372,53.628,199.301z"/>
	<path d="M99.599,199.301l-21.484,21.486c-2.929,2.929-2.928,7.678,0.001,10.607c1.465,1.464,3.384,2.196,5.303,2.196
		c1.919,0,3.839-0.732,5.304-2.197l21.484-21.486c2.929-2.929,2.928-7.678,0-10.607C107.276,196.372,102.528,196.372,99.599,199.301
		z"/>
	<path d="M145.57,199.301l-21.484,21.486c-2.929,2.929-2.928,7.678,0,10.607c1.465,1.464,3.384,2.196,5.303,2.196
		c1.919,0,3.839-0.732,5.304-2.197l21.484-21.486c2.929-2.929,2.928-7.678-0.001-10.607
		C153.247,196.372,148.499,196.372,145.57,199.301z"/>
</g>
</svg>
