<?xml version="1.0" encoding="iso-8859-1"?>
<!-- Generator: Adobe Illustrator 18.0.0, SVG Export Plug-In . SVG Version: 6.00 Build 0)  -->
<!DOCTYPE svg PUBLIC "-//W3C//DTD SVG 1.1//EN" "http://www.w3.org/Graphics/SVG/1.1/DTD/svg11.dtd">
<svg version="1.1" id="Capa_1" xmlns="http://www.w3.org/2000/svg" xmlns:xlink="http://www.w3.org/1999/xlink" x="0px" y="0px"
	 viewBox="0 0 227.73 227.73" style="enable-background:new 0 0 227.73 227.73;" xml:space="preserve">
<g>
	<circle cx="183.082" cy="187.694" r="10.499"/>
	<circle cx="137.27" cy="187.694" r="10.499"/>
	<circle cx="91.139" cy="187.694" r="10.499"/>
	<circle cx="45.328" cy="187.694" r="10.499"/>
	<circle cx="160.27" cy="216.486" r="10.498"/>
	<circle cx="114.139" cy="216.486" r="10.498"/>
	<circle cx="68.328" cy="216.486" r="10.498"/>
	<path d="M169.316,39.469c-1.193,0-2.388,0.036-3.582,0.108c-9.796-23.143-33.3-38.831-59.221-38.831
		c-35.335,0-64.082,28.178-64.082,62.813c0,0.121,0,0.243,0.001,0.365C18.732,65.706,0,85.2,0,108.906
		c0,24.876,20.625,45.113,45.977,45.113h123.34c32.209,0,58.414-25.694,58.414-57.275S201.526,39.469,169.316,39.469z
		 M169.316,139.02H45.977C28.896,139.02,15,125.511,15,108.906c0-16.605,13.896-30.115,30.977-30.115c1.054,0,2.226,0.08,3.687,0.25
		c2.317,0.272,4.624-0.551,6.248-2.222c1.625-1.671,2.379-4.003,2.043-6.31c-0.347-2.379-0.523-4.718-0.523-6.951
		c0-26.364,22.018-47.813,49.082-47.813c21.54,0,40.879,14.036,47.027,34.132c1.102,3.6,4.703,5.83,8.412,5.202
		c2.42-0.406,4.897-0.611,7.363-0.611c23.938,0,43.414,18.965,43.414,42.275C212.73,120.055,193.255,139.02,169.316,139.02z"/>
</g>
</svg>
