<?xml version="1.0" encoding="iso-8859-1"?>
<!-- Generator: Adobe Illustrator 18.0.0, SVG Export Plug-In . SVG Version: 6.00 Build 0)  -->
<!DOCTYPE svg PUBLIC "-//W3C//DTD SVG 1.1//EN" "http://www.w3.org/Graphics/SVG/1.1/DTD/svg11.dtd">
<svg version="1.1" id="Capa_1" xmlns="http://www.w3.org/2000/svg" xmlns:xlink="http://www.w3.org/1999/xlink" x="0px" y="0px"
	 viewBox="0 0 226.705 226.705" style="enable-background:new 0 0 226.705 226.705;" xml:space="preserve">
<g>
	<path d="M174.178,91.582c-23.999,0-43.523,19.523-43.523,43.521c0,20.026,16.292,36.318,36.316,36.318c4.142,0,7.5-3.357,7.5-7.5
		c0-4.143-3.358-7.5-7.5-7.5c-11.754,0-21.316-9.563-21.316-21.318c0-15.727,12.795-28.521,28.523-28.521
		c20.693,0,37.527,16.834,37.527,37.525c0,26.901-21.885,48.787-48.785,48.787H7.5c-4.142,0-7.5,3.357-7.5,7.5
		c0,4.143,3.358,7.5,7.5,7.5h155.42c35.171,0,63.785-28.615,63.785-63.787C226.705,115.145,203.142,91.582,174.178,91.582z"/>
	<path d="M7.5,151.57h69.889c23.534,0,42.68-19.146,42.68-42.68c0-19.652-15.989-35.641-35.643-35.641
		c-16.55,0-30.014,13.464-30.014,30.014c0,14.066,11.444,25.51,25.51,25.51c4.142,0,7.5-3.357,7.5-7.5s-3.358-7.5-7.5-7.5
		c-5.795,0-10.51-4.715-10.51-10.51c0-8.278,6.735-15.014,15.014-15.014c11.382,0,20.643,9.26,20.643,20.641
		c0,15.263-12.417,27.68-27.68,27.68H7.5c-4.142,0-7.5,3.357-7.5,7.5S3.358,151.57,7.5,151.57z"/>
	<path d="M130.402,79.301h52.418c18.133,0,32.885-14.752,32.885-32.885c0-15.222-12.385-27.605-27.607-27.605
		c-12.895,0-23.385,10.49-23.385,23.385c0,11.032,8.975,20.008,20.006,20.008c3.59,0,6.5-2.91,6.5-6.5c0-3.59-2.91-6.5-6.5-6.5
		c-3.863,0-7.006-3.144-7.006-7.008c0-5.727,4.659-10.385,10.385-10.385c8.055,0,14.607,6.552,14.607,14.605
		c0,10.965-8.92,19.885-19.885,19.885h-52.418c-3.59,0-6.5,2.91-6.5,6.5C123.902,76.391,126.813,79.301,130.402,79.301z"/>
</g>
</svg>
