<?xml version="1.0" encoding="UTF-8" standalone="no"?>
<!-- Generator: Adobe Illustrator 19.0.0, SVG Export Plug-In . SVG Version: 6.00 Build 0)  -->

<svg
   version="1.1"
   id="Layer_1"
   x="0px"
   y="0px"
   viewBox="0 0 329.999 329.999"
   style="enable-background:new 0 0 329.999 329.999;"
   xml:space="preserve"
   xmlns="http://www.w3.org/2000/svg"
   xmlns:svg="http://www.w3.org/2000/svg"><defs
   id="defs1" />
<path
   d="m 298.35604,183.36587 h -43.23566 l -28.94473,-73.42995 c -0.0176,-0.0836 -0.0485,-0.15596 -0.0662,-0.23394 -0.0925,-0.44561 -0.20278,-0.88565 -0.35704,-1.30898 -0.0881,-0.24509 -0.20721,-0.46789 -0.30859,-0.69627 -0.10579,-0.23394 -0.20276,-0.47903 -0.32618,-0.70183 -0.13666,-0.23952 -0.29976,-0.45118 -0.45404,-0.66842 -0.12783,-0.18381 -0.24685,-0.38433 -0.39232,-0.55701 -0.19836,-0.23951 -0.42317,-0.43447 -0.64357,-0.64056 -0.11903,-0.11697 -0.23362,-0.24509 -0.36146,-0.35092 -1.09761,-0.88008 -2.39801,-1.34797 -3.75128,-1.2867 -0.22921,0.006 -0.44522,0.0724 -0.66562,0.11141 -0.20718,0.0334 -0.40995,0.039 -0.61713,0.10027 -0.18955,0.0557 -0.35265,0.15596 -0.53336,0.23394 -0.22923,0.0947 -0.45845,0.16711 -0.67445,0.28965 -0.25125,0.13925 -0.47167,0.32863 -0.70089,0.50131 -0.13664,0.10583 -0.27771,0.18938 -0.41436,0.30636 -0.20276,0.18381 -0.38791,0.40661 -0.57745,0.62385 -0.12783,0.15039 -0.27329,0.28407 -0.39231,0.44561 -0.16752,0.22837 -0.30417,0.47346 -0.45404,0.71854 -0.1102,0.18939 -0.24243,0.36206 -0.34384,0.57373 -0.1719,0.35091 -0.30855,0.72968 -0.4452,1.11402 -0.0441,0.11697 -0.097,0.22281 -0.13665,0.34535 l -49.9549,97.55906 -38.31449,-131.034466 c -0.022,-0.111393 -0.0706,-0.206099 -0.097,-0.31193 -0.0751,-0.278511 -0.16311,-0.545869 -0.26009,-0.813242 -0.0838,-0.23394 -0.1675,-0.473457 -0.26888,-0.696258 -0.11021,-0.245093 -0.23805,-0.473471 -0.36587,-0.701834 -0.11903,-0.211676 -0.23364,-0.417761 -0.36589,-0.61272 -0.14545,-0.217238 -0.30854,-0.412184 -0.47606,-0.612706 -0.14546,-0.172681 -0.28652,-0.345348 -0.44523,-0.501313 -0.17631,-0.17268 -0.36585,-0.328645 -0.55539,-0.479033 -0.18074,-0.144826 -0.36147,-0.284075 -0.55102,-0.406621 -0.0838,-0.05577 -0.15428,-0.128166 -0.24246,-0.178244 -0.119,-0.06681 -0.24242,-0.09462 -0.36145,-0.155965 -0.19837,-0.09476 -0.39672,-0.183806 -0.59949,-0.256219 -0.23364,-0.08358 -0.45844,-0.144825 -0.69207,-0.194959 -0.18074,-0.03899 -0.36147,-0.06681 -0.54659,-0.08917 -0.25567,-0.02781 -0.51135,-0.0334 -0.7626,-0.02236 -0.17192,0.0056 -0.33501,0.02236 -0.50694,0.04458 -0.2733,0.03899 -0.54218,0.100212 -0.80668,0.183806 -0.0925,0.02781 -0.18513,0.02781 -0.27329,0.06122 -0.0706,0.02222 -0.12783,0.0724 -0.19396,0.100212 -0.26007,0.105803 -0.50692,0.23394 -0.75378,0.378765 -0.15868,0.09476 -0.31296,0.178244 -0.46285,0.284075 -0.21599,0.150388 -0.41437,0.328631 -0.61712,0.506875 -0.15428,0.139207 -0.30416,0.278511 -0.44963,0.4289 -0.17632,0.189396 -0.33501,0.395481 -0.4937,0.607143 -0.13664,0.189397 -0.2777,0.373203 -0.40113,0.573725 -0.12784,0.211662 -0.24245,0.434476 -0.36148,0.662854 -0.12341,0.24508 -0.24243,0.495736 -0.34822,0.757531 -0.0397,0.100213 -0.0925,0.183807 -0.12783,0.284075 L 72.807274,181.86652 33.64122,181.36587 c -3.654078,-0.0467 -6.612108,9.74312 -6.612108,14.35518 0,4.61205 2.957818,12.35518 6.612108,12.35518 h 52.901367 c 0.577457,0 1.132874,-0.12257 1.666251,-0.30079 0.132242,-0.0446 0.255668,-0.10021 0.387911,-0.15039 0.458438,-0.18938 0.890429,-0.43447 1.300381,-0.74083 0.07935,-0.0612 0.158691,-0.1058 0.238035,-0.16152 0.462847,-0.37878 0.877207,-0.83552 1.251892,-1.34798 0.09257,-0.12257 0.171914,-0.26179 0.255669,-0.3899 0.326197,-0.50131 0.608314,-1.04718 0.828717,-1.63205 0.02645,-0.0668 0.07053,-0.11698 0.09256,-0.17824 l 23.711397,-68.42872 38.36204,124.3547 c 0.0176,0.0836 0.0618,0.13921 0.0838,0.2228 0.19838,0.79653 0.46727,1.55406 0.84195,2.24475 0.005,0.0112 0.009,0.0224 0.0176,0.0334 0.36148,0.6517 0.81991,1.21429 1.31802,1.72116 0.0925,0.0946 0.18073,0.18382 0.27771,0.27294 0.4452,0.40104 0.91687,0.7631 1.45466,1.01932 0.0441,0.0224 0.0925,0.0112 0.13664,0.0334 0.7097,0.32307 2.22168,0.51801 2.22168,0.51801 v 0 0 c 0,0 0.0176,-0.006 0.0264,-0.006 0.59509,-0.006 1.1946,-0.1058 1.7941,-0.31751 0.0264,-0.0112 0.0529,-0.0334 0.0838,-0.0446 0.0662,-0.0222 0.11904,-0.0668 0.18515,-0.0946 0.51575,-0.21166 0.9874,-0.51245 1.42822,-0.8578 0.11019,-0.0892 0.2204,-0.17267 0.33059,-0.27294 0.47608,-0.43446 0.91248,-0.91907 1.27834,-1.48722 0.0485,-0.0724 0.0838,-0.15596 0.12785,-0.23394 0.33941,-0.56816 0.61272,-1.18087 0.8287,-1.83257 0.0264,-0.0836 0.0794,-0.1392 0.10137,-0.22838 l 50.7171,-103.50884 22.15988,45.33853 c 0.0133,0.0612 0.0441,0.11139 0.0573,0.1671 0.1675,0.82438 0.43199,1.60419 0.78022,2.31717 0.0308,0.0668 0.0529,0.13361 0.0882,0.20053 0.35705,0.68512 0.80667,1.27555 1.30037,1.79914 0.0925,0.0948 0.17631,0.1894 0.2733,0.27851 0.50251,0.47903 1.05353,0.86338 1.65302,1.14187 0.10137,0.0502 0.20718,0.0836 0.31297,0.12258 0.62594,0.25065 1.27836,0.42332 1.97041,0.42332 h 0.005 0.005 v 0 h 51.8605 c 3.64989,0 4.9225,-7.74311 4.9225,-12.35518 0.67618,-8.77013 0.51401,-9.13182 -4.92206,-12.34959 z"
   id="path1"
   style="stroke-width:4.95516"
/>
</svg>
