<?xml version="1.0" encoding="UTF-8" standalone="no"?>
<svg
   width="1536"
   height="1536"
   version="1.1"
   id="svg1"
   xmlns="http://www.w3.org/2000/svg"
   xmlns:svg="http://www.w3.org/2000/svg">
  <defs
     id="defs1" />
  <ellipse
     style="fill:#8d5fd3;fill-opacity:1;stroke:#ffffff;stroke-width:70;stroke-dasharray:none;stroke-opacity:1"
     id="path4"
     cx="763.95142"
     cy="747.63928"
     rx="652.48499"
     ry="652.48523" />
  <path
     d="m 769.8877,649.18158 c 64.07687,0 116.06386,51.98691 116.06386,116.06387 0,64.07695 -51.98699,116.06386 -116.06386,116.06386 -64.07696,0 -116.06387,-51.98691 -116.06387,-116.06386 0,-64.07696 51.98691,-116.06387 116.06387,-116.06387 z m 283.7116,-167.64783 c 56.823,0 103.1679,46.34499 103.1679,103.16794 v 361.0876 c 0,56.82291 -46.3449,103.16781 -103.1679,103.16781 H 486.176 c -56.82294,0 -103.16794,-46.3449 -103.16794,-103.16781 v -361.0876 c 0,-56.82295 46.345,-103.16794 103.16794,-103.16794 h 90.27192 l 20.55297,-54.80792 c 10.07493,-26.59797 41.50895,-48.35995 69.71887,-48.35995 h 206.33579 c 28.21,0 59.64394,21.76198 69.71896,48.35995 l 20.55292,54.80792 z M 769.8877,945.78929 c 99.54089,0 180.54373,-81.00296 180.54373,-180.54384 0,-99.54089 -81.00284,-180.54376 -180.54373,-180.54376 -99.54089,0 -180.54385,81.00287 -180.54385,180.54376 0,99.54088 81.00296,180.54384 180.54385,180.54384 z"
     id="path1"
     style="fill:#ffffff;stroke-width:0.403" />
</svg>
