<?xml version="1.0" encoding="UTF-8" standalone="no"?>
<!-- Generator: Adobe Illustrator 19.0.0, SVG Export Plug-In . SVG Version: 6.00 Build 0)  -->

<svg
   version="1.1"
   id="Layer_1"
   x="0px"
   y="0px"
   viewBox="0 0 329.999 329.999"
   style="enable-background:new 0 0 329.999 329.999;"
   xml:space="preserve"
   sodipodi:docname="elevation_edition.svg"
   inkscape:version="1.4.2 (ebf0e940d0, 2025-05-08)"
   xmlns:inkscape="http://www.inkscape.org/namespaces/inkscape"
   xmlns:sodipodi="http://sodipodi.sourceforge.net/DTD/sodipodi-0.dtd"
   xmlns="http://www.w3.org/2000/svg"
   xmlns:svg="http://www.w3.org/2000/svg"><defs
   id="defs1" /><sodipodi:namedview
   id="namedview1"
   pagecolor="#ffffff"
   bordercolor="#000000"
   borderopacity="0.25"
   inkscape:showpageshadow="2"
   inkscape:pageopacity="0.0"
   inkscape:pagecheckerboard="0"
   inkscape:deskcolor="#d1d1d1"
   inkscape:zoom="2.4212195"
   inkscape:cx="164.9995"
   inkscape:cy="164.9995"
   inkscape:window-width="1920"
   inkscape:window-height="1008"
   inkscape:window-x="0"
   inkscape:window-y="0"
   inkscape:window-maximized="1"
   inkscape:current-layer="Layer_1" />
<g
   id="XMLID_340_"
   transform="matrix(0.99499375,0,0,1.0257668,1.6520613,58.758771)">
	<path
   id="XMLID_341_"
   d="M 237.055,265 H 315 c 5.437,0 10.451,-2.944 13.1,-7.694 2.649,-4.75 2.52,-10.562 -0.338,-15.188 L 306.90821,208.87873 287.55682,227.89275 222.54518,166.78136 225.35169,77.172456 222.762,72.118 C 220.029,67.693 215.199,65 210,65 c -5.201,0 -10.029,2.693 -12.763,7.118 l -39.513,63.974 75.26,122.297 z"
   sodipodi:nodetypes="cssccccccscccc" />
	<path
   id="XMLID_348_"
   d="m 15,265 h 160 c 0.006,0 0.014,0 0.019,0 h 26.809 L 107.565,111.822 C 104.804,107.577 100.082,105 95,105 c -5.209,0 -10.045,2.702 -12.775,7.139 l -80,130 c -2.848,4.628 -2.97,10.435 -0.318,15.178 C 4.557,262.061 9.566,265 15,265 Z" />
</g><path
   d="m 312.95754,207.03154 0.0282,-16.91731 -44.17262,0.43295 -0.0282,16.91728 10.03974,9.84733 12.04982,-12.0158 12.01018,11.77998 z M 275.11857,72.531054 c -1.21979,-1.19641 -2.9115,-1.17981 -4.1353,0.0405 -0.56484,0.56324 -0.94204,1.31053 -0.94359,2.24006 L 269.87187,175.5717 c -0.002,0.92952 0.37317,1.66945 0.93582,2.22177 1.2198,1.19642 2.91148,1.17983 4.13532,-0.0405 0.56483,-0.56324 0.94201,-1.3105 0.94356,-2.24006 L 276.0544,74.752804 c 0.002,-0.92952 -0.37313,-1.66946 -0.93583,-2.22177 z m -23.09875,-12.60078 78.19484,-0.76641 -0.25762,154.672336 -39.16182,39.05128 -39.03303,-38.28485 z M 325.32439,4.6497829 c 3.19017,3.129047 4.96861,7.4802871 4.96142,11.7560961 l -0.0513,30.860093 -78.19482,0.766399 0.14521,-30.768055 c -0.0867,-4.367854 1.70628,-8.7541091 4.90699,-11.9457841 3.20073,-3.191692 7.62093,-5.00107098 12.13217,-5.04529198 l 44.07875,-0.524978 c 4.41705,0.04966 8.83136,1.77244398 12.02159,4.90151298 z"
   id="path1"
   style="stroke-width:0.132181" />
</svg>
