<?xml version="1.0" encoding="iso-8859-1"?>
<!-- Generator: Adobe Illustrator 19.0.0, SVG Export Plug-In . SVG Version: 6.00 Build 0)  -->
<svg version="1.1" id="Layer_1" xmlns="http://www.w3.org/2000/svg" xmlns:xlink="http://www.w3.org/1999/xlink" x="0px" y="0px"
	 viewBox="0 0 329.999 329.999" style="enable-background:new 0 0 329.999 329.999;" xml:space="preserve">
<g id="XMLID_340_">
	<path id="XMLID_341_" d="M237.055,265H315c5.437,0,10.451-2.944,13.1-7.694c2.649-4.75,2.52-10.562-0.338-15.188l-105-170
		C220.029,67.693,215.199,65,210,65c-5.201,0-10.029,2.693-12.763,7.118l-39.513,63.974l75.26,122.297L237.055,265z"/>
	<path id="XMLID_348_" d="M15,265h160c0.006,0,0.014,0,0.019,0h26.809l-94.263-153.178C104.804,107.577,100.082,105,95,105
		c-5.209,0-10.045,2.702-12.775,7.139l-80,130c-2.848,4.628-2.97,10.435-0.318,15.178C4.557,262.061,9.566,265,15,265z"/>
</g>
</svg>
