<?xml version="1.0" encoding="UTF-8" standalone="no"?>
<!-- Generator: Adobe Illustrator 19.0.0, SVG Export Plug-In . SVG Version: 6.00 Build 0)  -->

<svg
   version="1.1"
   id="Layer_1"
   x="0px"
   y="0px"
   viewBox="0 0 329.999 329.999"
   style="enable-background:new 0 0 329.999 329.999;"
   xml:space="preserve"
   sodipodi:docname="mountains.svg"
   inkscape:version="1.4.1 (93de688d07, 2025-03-30)"
   xmlns:inkscape="http://www.inkscape.org/namespaces/inkscape"
   xmlns:sodipodi="http://sodipodi.sourceforge.net/DTD/sodipodi-0.dtd"
   xmlns="http://www.w3.org/2000/svg"
   xmlns:svg="http://www.w3.org/2000/svg"><defs
   id="defs1" /><sodipodi:namedview
   id="namedview1"
   pagecolor="#ffffff"
   bordercolor="#000000"
   borderopacity="0.25"
   inkscape:showpageshadow="2"
   inkscape:pageopacity="0.0"
   inkscape:pagecheckerboard="0"
   inkscape:deskcolor="#d1d1d1"
   showgrid="false"
   inkscape:zoom="2.4212195"
   inkscape:cx="164.9995"
   inkscape:cy="164.9995"
   inkscape:window-width="1920"
   inkscape:window-height="1008"
   inkscape:window-x="1080"
   inkscape:window-y="420"
   inkscape:window-maximized="1"
   inkscape:current-layer="Layer_1" />

<path
   d="m 320.18109,183.36587 h -49.17842 l -34.2621,-73.42995 c -0.0208,-0.0836 -0.0575,-0.15596 -0.0783,-0.23394 -0.10953,-0.44561 -0.24002,-0.88565 -0.42264,-1.30898 -0.1043,-0.24509 -0.24526,-0.46789 -0.36526,-0.69627 -0.12523,-0.23394 -0.24002,-0.47903 -0.38612,-0.70183 -0.16175,-0.23952 -0.35482,-0.45118 -0.53744,-0.66842 -0.15132,-0.18381 -0.2922,-0.38433 -0.46439,-0.55701 -0.2348,-0.23951 -0.50091,-0.43447 -0.76181,-0.64056 -0.14089,-0.11697 -0.27654,-0.24509 -0.42786,-0.35092 -1.29925,-0.88008 -2.83853,-1.34797 -4.44042,-1.2867 -0.27132,0.006 -0.52701,0.0724 -0.78789,0.11141 -0.24524,0.0334 -0.48527,0.039 -0.73051,0.10027 -0.22436,0.0557 -0.41743,0.15596 -0.63135,0.23394 -0.27133,0.0947 -0.54267,0.16711 -0.79834,0.28965 -0.29741,0.13925 -0.55832,0.32863 -0.82965,0.50131 -0.16175,0.10583 -0.32873,0.18938 -0.49048,0.30636 -0.24001,0.18381 -0.45917,0.40661 -0.68354,0.62385 -0.15131,0.15039 -0.3235,0.28407 -0.46438,0.44561 -0.19829,0.22837 -0.36004,0.47346 -0.53745,0.71854 -0.13044,0.18939 -0.28697,0.36206 -0.407,0.57373 -0.20349,0.35091 -0.36524,0.72968 -0.527,1.11402 -0.0522,0.11697 -0.11476,0.22281 -0.16175,0.34535 L 162.6749,212.41439 117.32172,75.379924 c -0.0261,-0.111393 -0.0835,-0.206099 -0.11477,-0.31193 -0.0888,-0.278511 -0.19306,-0.545869 -0.30785,-0.813242 -0.0992,-0.23394 -0.19829,-0.473457 -0.31829,-0.696258 -0.13046,-0.245093 -0.28177,-0.473471 -0.43308,-0.701834 -0.14089,-0.211676 -0.27656,-0.417761 -0.4331,-0.61272 -0.17218,-0.217238 -0.36523,-0.412184 -0.56353,-0.612706 -0.17217,-0.172681 -0.33915,-0.345348 -0.527,-0.501313 -0.20871,-0.17268 -0.43308,-0.328645 -0.65744,-0.479033 -0.21393,-0.144826 -0.42787,-0.284075 -0.65224,-0.406621 -0.0992,-0.05577 -0.18262,-0.128166 -0.28699,-0.178244 -0.14088,-0.06681 -0.28697,-0.09462 -0.42786,-0.155965 -0.23481,-0.09476 -0.46961,-0.183806 -0.70963,-0.256219 -0.27655,-0.08358 -0.54266,-0.144825 -0.8192,-0.194959 -0.21394,-0.03899 -0.42788,-0.06681 -0.64702,-0.08917 -0.30263,-0.02781 -0.60528,-0.0334 -0.90269,-0.02236 -0.20349,0.0056 -0.39656,0.02236 -0.60005,0.04458 -0.32352,0.03899 -0.6418,0.100212 -0.95488,0.183806 -0.10953,0.02781 -0.21914,0.02781 -0.3235,0.06122 -0.0835,0.02222 -0.15132,0.0724 -0.22959,0.100212 -0.30785,0.105803 -0.60005,0.23394 -0.89226,0.378765 -0.18784,0.09476 -0.37046,0.178244 -0.54788,0.284075 -0.25567,0.150388 -0.49048,0.328631 -0.73049,0.506875 -0.18263,0.139207 -0.36004,0.278511 -0.53223,0.4289 -0.20871,0.189396 -0.39655,0.395481 -0.5844,0.607143 -0.16175,0.189397 -0.32872,0.373203 -0.47482,0.573725 -0.15132,0.211662 -0.28698,0.434476 -0.42788,0.662854 -0.14609,0.24508 -0.28697,0.495736 -0.4122,0.757531 -0.047,0.100213 -0.10953,0.183807 -0.15131,0.284075 L 55.197153,181.86652 8.8359731,181.36587 c -4.3253623,-0.0467 -7.8268066,9.74312 -7.8268066,14.35518 0,4.61205 3.5011921,12.35518 7.8268066,12.35518 H 64.720924 c 0.68354,0 1.340992,-0.12257 1.972354,-0.30079 0.156537,-0.0446 0.302637,-0.10021 0.459173,-0.15039 0.542659,-0.18938 1.05401,-0.43447 1.539272,-0.74083 0.09392,-0.0612 0.187844,-0.1058 0.281765,-0.16152 0.547876,-0.37878 1.038357,-0.83552 1.481875,-1.34798 0.109578,-0.12257 0.203497,-0.26179 0.302637,-0.3899 0.386122,-0.50131 0.720066,-1.04718 0.980959,-1.63205 0.03131,-0.0668 0.08348,-0.11698 0.109579,-0.17824 L 108.1174,117.8547 152.0602,259.10051 c 0.0208,0.0836 0.0731,0.13921 0.0991,0.2228 0.23482,0.79653 0.55311,1.55406 0.99663,2.24475 0.005,0.0112 0.0107,0.0224 0.0208,0.0334 0.42788,0.6517 0.97053,1.21429 1.56015,1.72116 0.10953,0.0946 0.21393,0.18382 0.32873,0.27294 0.52699,0.40104 1.08531,0.7631 1.7219,1.01932 0.0522,0.0224 0.10953,0.0112 0.16175,0.0334 0.84007,0.32307 2.62981,0.51801 2.62981,0.51801 v 0 0 c 0,0 0.0208,-0.006 0.0313,-0.006 0.70441,-0.006 1.41404,-0.1058 2.12367,-0.31751 0.0313,-0.0112 0.0626,-0.0334 0.0992,-0.0446 0.0783,-0.0222 0.1409,-0.0668 0.21916,-0.0946 0.61049,-0.21166 1.1688,-0.51245 1.69059,-0.8578 0.13044,-0.0892 0.26089,-0.17267 0.39134,-0.27294 0.56353,-0.43446 1.0801,-0.91907 1.51318,-1.48722 0.0575,-0.0724 0.0992,-0.15596 0.15132,-0.23394 0.40177,-0.56816 0.72529,-1.18087 0.98096,-1.83257 0.0313,-0.0836 0.094,-0.1392 0.12001,-0.22838 l 62.40166,-109.50884 23.86342,51.33853 c 0.0157,0.0612 0.0522,0.11139 0.0678,0.1671 0.19827,0.82438 0.51135,1.60419 0.92355,2.31717 0.0365,0.0668 0.0626,0.13361 0.10431,0.20053 0.42265,0.68512 0.95487,1.27555 1.53927,1.79914 0.10953,0.0948 0.20871,0.1894 0.32351,0.27851 0.59483,0.47903 1.24707,0.86338 1.95669,1.14187 0.12001,0.0502 0.24524,0.0836 0.37047,0.12258 0.74093,0.25065 1.51319,0.42332 2.33239,0.42332 h 0.005 0.005 v 0 h 59.3877 c 4.3204,0 7.82681,-7.74311 7.82681,-12.35518 0,-4.61205 -3.50641,-8.3496 -7.82681,-8.3496 z"
   id="path1"
   style="stroke-width:5.39113"
   sodipodi:nodetypes="cccccccccccccccccccccccccccccccccccccccccccccccccccccccsssscccccccccccccccccscscccccccccccccccccccscccsscc" /></svg>
