<?xml version="1.0" encoding="UTF-8" standalone="no"?>
<!-- Generator: Adobe Illustrator 19.0.0, SVG Export Plug-In . SVG Version: 6.00 Build 0)  -->
<svg
        version="1.1"
        id="Capa_1"
        x="0px"
        y="0px"
		width="16" height="16"
        viewBox="0 0 16 16"
        style="enable-background:new 0 0 16 16;"
        xml:space="preserve"
        xmlns="http://www.w3.org/2000/svg"
        xmlns:svg="http://www.w3.org/2000/svg">
    <g
            id="g40"
            transform="matrix(0.03143434,0,0,0.03143434,0.10918102,0.2844324)"><path
     style="fill:#b4b4bb"
     d="m 512,256 c 0,6.165 -0.219,12.278 -0.648,18.338 C 501.948,407.165 391.22,512 256,512 170.203,512 94.271,469.797 47.825,405.023 34.147,385.954 23.03,364.941 14.973,342.465 l 93.33,-230.013 62.694,100.31 L 272.866,40.354 420.979,204.142 484.561,140.56 C 502.115,175.25 512,214.476 512,256 Z"
     id="path2" />
        <g
                id="g8">
	<path
            style="fill:#000000"
            d="M 147.074,349.54 C 93.091,364.767 36.785,333.236 21.558,279.254 6.331,225.272 37.862,168.965 91.844,153.738 c 53.982,-15.227 110.289,16.304 125.516,70.286 15.227,53.982 -16.304,110.29 -70.286,125.516 z M 96.981,171.953 c -43.94,12.394 -69.604,58.225 -57.21,102.165 12.394,43.94 58.225,69.604 102.165,57.21 43.94,-12.394 69.604,-58.225 57.21,-102.165 -12.394,-43.94 -58.225,-69.605 -102.165,-57.21 z"
            id="path4"/>
            <path
                    style="fill:#000000"
                    d="M 407.309,276.136 C 353.326,291.363 297.02,259.832 281.793,205.85 266.566,151.868 298.097,95.561 352.079,80.334 406.061,65.107 462.368,96.638 477.595,150.62 492.822,204.602 461.292,260.909 407.309,276.136 Z M 357.216,98.547 c -43.94,12.395 -69.604,58.225 -57.21,102.165 12.394,43.94 58.225,69.604 102.165,57.21 43.94,-12.394 69.604,-58.225 57.21,-102.165 -12.394,-43.939 -58.225,-69.603 -102.165,-57.21 z"
                    id="path6"/>
</g>
        <path
                style="fill:#000000"
                d="m 123.193,242.597 29.354,-121.287 84.62,89.137 z M 247.875,199.394 162.786,109.763 283.972,75.58 Z M 366.608,16.084 C 360.227,5.14 346.934,0.274 334.999,4.538 l -28.988,10.339 -22.312,7.953 c -2.201,0.781 -3.923,2.519 -4.677,4.724 -0.766,2.207 -0.484,4.647 0.761,6.618 l 14.28,22.653 c -0.306,0.049 -0.611,0.099 -0.918,0.185 l -142.32,40.144 -16.135,-16.98 -11.149,10.58 16.4,17.274 -34.78,143.731 c -0.652,2.654 0.16,5.448 2.135,7.35 1.971,1.889 4.788,2.594 7.417,1.853 l 138.086,-38.95 -0.009,-0.034 c 0.175,-0.037 0.359,-0.076 0.533,-0.114 l 0.273,-0.077 c 2.55,-0.719 4.548,-2.697 5.293,-5.241 l 42.96,-147.366 71.344,113.157 c 1.854,2.955 5.39,4.207 8.589,3.304 0.695,-0.195 1.371,-0.497 2.02,-0.902 3.588,-2.265 4.657,-7.016 2.392,-10.605 l -88.282,-140.05 16.649,-5.937 25.605,-9.127 c 4.952,-1.79 10.503,0.246 13.154,4.807 1.643,2.818 1.945,6.198 0.832,9.265 -1.114,3.067 -3.513,5.452 -6.58,6.563 l -10.185,3.672 c -3.992,1.445 -6.067,5.852 -4.622,9.845 1.434,3.995 5.861,6.052 9.834,4.625 l 10.185,-3.672 c 7.371,-2.669 13.136,-8.412 15.815,-15.779 2.673,-7.38 1.949,-15.484 -1.991,-22.262 z"
                id="path10"/>
        <g
                id="g20">
	<circle
            style="fill:#000000"
            cx="119.463"
            cy="251.64301"
            r="15.768"
            id="circle12"/>
            <circle
                    style="fill:#000000"
                    cx="379.69501"
                    cy="178.239"
                    r="15.768"
                    id="circle14"/>
            <path
                    style="fill:#000000"
                    d="m 368.598,38.345 c -2.678,7.368 -8.444,13.11 -15.815,15.779 l -10.185,3.672 c -3.973,1.427 -8.399,-0.629 -9.834,-4.625 -1.445,-3.993 0.629,-8.399 4.622,-9.845 l 10.185,-3.672 c 3.067,-1.111 5.466,-3.496 6.58,-6.563 1.114,-3.067 0.812,-6.447 -0.832,-9.265 -2.651,-4.561 -8.202,-6.596 -13.154,-4.807 l -17.975,6.407 c -4.128,1.471 -8.64,-0.859 -9.83,-5.077 v 0 c -1.072,-3.8 0.956,-7.786 4.658,-9.156 l 17.98,-6.656 c 11.935,-4.263 25.228,0.602 31.609,11.546 3.941,6.779 4.665,14.883 1.991,22.262 z"
                    id="path16"/>
            <path
                    style="fill:#000000"
                    d="m 174.094,57.388 -61.025,7.232 c -6.381,0.757 -10.576,7.036 -8.833,13.221 l 3.608,12.792 c 1.227,4.348 5.745,6.878 10.093,5.652 L 178.439,79.22 c 5.934,-1.674 9.387,-7.841 7.713,-13.775 v 0 c -1.491,-5.288 -6.605,-8.704 -12.058,-8.057 z"
                    id="path18"/>
</g>
        <path
                style="fill:#000000"
                d="m 511.352,274.338 c -3.302,46.686 -19.122,89.903 -44.126,126.328 -14.137,20.616 -31.222,39.048 -50.636,54.711 -22.037,17.774 -47.083,31.974 -74.261,41.702 C 315.361,506.734 286.292,512 256,512 210.369,512 167.539,500.067 130.435,479.138 97.782,460.727 69.58,435.346 47.825,405.023 l 99.244,-57.574 102.285,20.47 50.155,-84.637 z"
                id="path22"/></g>
</svg>
