<?xml version="1.0" encoding="UTF-8" standalone="no"?>
<svg
    version="1.0"
    xmlns="http://www.w3.org/2000/svg"
    width="512.000000pt"
    height="512.000000pt"
    viewBox="0 0 512.000000 512.000000"
    preserveAspectRatio="xMidYMid meet"
>
    <g transform="translate(0.000000,512.000000) scale(0.100000,-0.100000)">
        <path d="M1467 5112 l-137 -3 2 -242 3 -242 295 -5 295 -5 3 -133 c2 -101 0
        -133 -10 -136 -7 -2 -67 -14 -133 -26 -510 -95 -953 -359 -1285 -765 -328
        -401 -508 -936 -487 -1445 13 -315 76 -572 209 -850 89 -188 209 -371 334
        -510 27 -30 62 -72 77 -92 124 -168 492 -411 792 -523 119 -45 333 -98 465
        -117 121 -16 467 -16 585 0 509 72 982 320 1308 687 307 344 485 715 554 1156
        25 159 25 472 0 624 -72 438 -249 812 -538 1142 -30 33 -69 80 -88 103 -46 58
        -205 188 -326 268 -256 170 -575 293 -872 335 l-88 13 -3 137 -3 137 263 2
        263 3 3 243 2 242 -102 0 c-725 4 -1269 4 -1381 2z m861 -1252 c329 -29 637
        -151 897 -355 328 -258 556 -639 624 -1044 26 -153 28 -386 5 -535 -53 -343
        -198 -643 -434 -898 -446 -481 -1127 -655 -1765 -451 -110 35 -302 129 -407
        200 -396 266 -663 686 -733 1151 -20 135 -20 374 0 507 105 691 625 1244 1315
        1395 163 36 321 46 498 30z"/>
        <path d="M2685 3221 c-44 -11 -87 -36 -117 -68 -14 -15 -160 -201 -322 -413
        -245 -318 -299 -394 -312 -439 -20 -66 -14 -123 21 -191 61 -121 227 -155 350
        -70 28 19 108 113 227 267 463 598 445 573 455 652 19 163 -140 301 -302 262z"/>
    </g>
</svg>
