<?xml version="1.0" encoding="iso-8859-1"?>
<!-- Generator: Adobe Illustrator 18.0.0, SVG Export Plug-In . SVG Version: 6.00 Build 0)  -->
<!DOCTYPE svg PUBLIC "-//W3C//DTD SVG 1.1//EN" "http://www.w3.org/Graphics/SVG/1.1/DTD/svg11.dtd">
<svg version="1.1" id="Capa_1" xmlns="http://www.w3.org/2000/svg" xmlns:xlink="http://www.w3.org/1999/xlink" x="0px" y="0px"
	 viewBox="0 0 305.367 305.367" style="enable-background:new 0 0 305.367 305.367;" xml:space="preserve">
<path d="M304.796,182.155c-1.024-2.473-3.289-4.212-5.942-4.565c-24.423-3.241-45.439-19.364-54.848-42.078
	c-9.409-22.715-5.95-48.978,9.028-68.539c1.627-2.125,1.999-4.957,0.975-7.43c-1.024-2.473-3.289-4.212-5.942-4.564
	c-14.611-1.941-29.547,0.022-43.191,5.673c-25.806,10.689-43.98,32.924-49.881,59.047c-11.954-13.502-29.57-21.858-48.481-21.858
	c-35.335,0-64.082,28.178-64.082,62.813c0,0.122,0,0.243,0.001,0.365C18.732,162.802,0,182.296,0,206.002
	c0,24.876,20.625,45.113,45.977,45.113h123.34c22.222,0,41.581-12.232,51.453-30.188c5.441,1.087,10.919,1.637,16.385,1.637
	c10.904,0,21.752-2.16,32.114-6.452c13.644-5.652,25.592-14.825,34.553-26.528C305.449,187.46,305.821,184.628,304.796,182.155z
	 M169.316,236.115H45.977C28.896,236.115,15,222.606,15,206.002c0-16.605,13.896-30.115,30.977-30.115
	c1.054,0,2.226,0.079,3.686,0.25c2.317,0.274,4.624-0.55,6.249-2.222c1.624-1.671,2.379-4.003,2.043-6.31
	c-0.347-2.379-0.523-4.718-0.523-6.951c0-26.364,22.018-47.813,49.082-47.813c21.467,0,40.743,13.942,46.96,33.929
	c0.08,0.281,0.177,0.554,0.288,0.82c1.305,3.233,4.699,5.177,8.191,4.585c2.42-0.406,4.897-0.611,7.363-0.611
	c23.939,0,43.414,18.965,43.414,42.275C212.73,217.15,193.255,236.115,169.316,236.115z M263.528,202.254
	c-11.973,4.959-24.725,6.442-37.293,4.414c0.967-4.127,1.496-8.417,1.496-12.828c0-31.582-26.205-57.275-58.414-57.275
	c-0.456,0-0.912,0.031-1.368,0.041c0.65-27.137,17.104-51.506,42.668-62.094c7.374-3.055,15.208-4.797,23.121-5.179
	c-11.756,22.019-13.285,48.514-3.589,71.92c9.694,23.403,29.512,41.058,53.392,48.315
	C277.674,194.893,270.903,199.199,263.528,202.254z"/>
</svg>
