<?xml version="1.0" encoding="iso-8859-1"?>
<!-- Generator: Adobe Illustrator 18.0.0, SVG Export Plug-In . SVG Version: 6.00 Build 0)  -->
<!DOCTYPE svg PUBLIC "-//W3C//DTD SVG 1.1//EN" "http://www.w3.org/Graphics/SVG/1.1/DTD/svg11.dtd">
<svg version="1.1" id="Capa_1" xmlns="http://www.w3.org/2000/svg" xmlns:xlink="http://www.w3.org/1999/xlink" x="0px" y="0px"
	 viewBox="0 0 227.73 227.73" style="enable-background:new 0 0 227.73 227.73;" xml:space="preserve">
<g>
	<path d="M169.317,50.195c-1.193,0-2.39,0.036-3.583,0.108c-9.795-23.143-33.298-38.831-59.221-38.831
		c-35.335,0-64.082,28.178-64.082,62.813c0,0.122,0,0.243,0.001,0.365C18.73,76.43,0,95.925,0,119.632
		c0,24.875,20.625,45.113,45.976,45.113h123.342c32.209,0,58.413-25.694,58.413-57.275C227.73,75.889,201.526,50.195,169.317,50.195
		z M169.317,149.746H45.976c-17.08,0-30.976-13.509-30.976-30.113c0-16.605,13.896-30.115,30.976-30.115
		c1.054,0,2.225,0.08,3.688,0.25c2.312,0.274,4.623-0.549,6.248-2.221c1.624-1.671,2.379-4.001,2.044-6.308
		c-0.348-2.388-0.523-4.728-0.523-6.954c0-26.364,22.019-47.813,49.082-47.813c21.541,0,40.879,14.035,47.026,34.131
		c1.102,3.6,4.708,5.826,8.412,5.203c2.42-0.406,4.897-0.611,7.365-0.611c23.938,0,43.413,18.965,43.413,42.275
		C212.73,130.781,193.256,149.746,169.317,149.746z"/>
	<path d="M87.575,185.001c-1.381-2.391-4.438-3.213-6.83-1.83l-6.218,3.59v-7.178c0-2.761-2.238-5-5-5c-2.762,0-5,2.239-5,5v7.177
		l-6.216-3.589c-2.393-1.383-5.451-0.561-6.83,1.83c-1.381,2.392-0.562,5.449,1.83,6.83l6.217,3.589l-6.217,3.589
		c-2.392,1.381-3.211,4.438-1.83,6.83c0.926,1.604,2.606,2.501,4.335,2.501c0.848,0,1.708-0.216,2.495-0.671l6.216-3.589v7.178
		c0,2.761,2.238,5,5,5c2.762,0,5-2.239,5-5v-7.179l6.218,3.59c0.787,0.455,1.647,0.671,2.495,0.671c1.729,0,3.409-0.897,4.335-2.501
		c1.381-2.392,0.562-5.449-1.83-6.83l-6.217-3.589l6.217-3.589C88.137,190.45,88.956,187.392,87.575,185.001z"/>
	<path d="M131.912,185.001c-1.38-2.391-4.439-3.213-6.83-1.83l-6.217,3.589v-7.177c0-2.761-2.238-5-5-5c-2.762,0-5,2.239-5,5v7.177
		l-6.217-3.589c-2.394-1.383-5.45-0.561-6.83,1.83c-1.381,2.392-0.562,5.449,1.83,6.83l6.217,3.589l-6.217,3.589
		c-2.392,1.381-3.211,4.438-1.83,6.83c0.926,1.604,2.606,2.501,4.335,2.501c0.848,0,1.708-0.216,2.495-0.671l6.217-3.589v7.178
		c0,2.761,2.238,5,5,5c2.762,0,5-2.239,5-5v-7.178l6.217,3.589c0.787,0.455,1.647,0.671,2.495,0.671
		c1.729,0,3.409-0.897,4.335-2.501c1.381-2.392,0.562-5.449-1.83-6.83l-6.217-3.589l6.217-3.589
		C132.474,190.45,133.293,187.392,131.912,185.001z"/>
	<path d="M176.249,185.001c-1.381-2.391-4.438-3.213-6.83-1.83l-6.218,3.59v-7.178c0-2.761-2.238-5-5-5c-2.762,0-5,2.239-5,5v7.177
		l-6.216-3.589c-2.394-1.383-5.451-0.561-6.83,1.83c-1.381,2.392-0.561,5.449,1.83,6.83l6.217,3.589l-6.217,3.589
		c-2.392,1.381-3.211,4.438-1.83,6.83c0.926,1.604,2.607,2.501,4.335,2.501c0.848,0,1.708-0.216,2.495-0.671l6.216-3.589v7.178
		c0,2.761,2.238,5,5,5c2.762,0,5-2.239,5-5v-7.179l6.218,3.59c0.787,0.455,1.648,0.671,2.495,0.671c1.729,0,3.409-0.897,4.335-2.501
		c1.381-2.392,0.562-5.449-1.83-6.83l-6.217-3.589l6.217-3.589C176.811,190.45,177.63,187.392,176.249,185.001z"/>
</g>
</svg>
