<?xml version="1.0" encoding="utf-8"?>
<!-- Generator: Adobe Illustrator 19.0.0, SVG Export Plug-In . SVG Version: 6.00 Build 0)  -->
<svg version="1.1" id="Layer_1" xmlns="http://www.w3.org/2000/svg" xmlns:xlink="http://www.w3.org/1999/xlink" x="0px" y="0px"
	 viewBox="-5 4.8 52.1 56.2" style="enable-background:new -5 4.8 52.1 56.2;" xml:space="preserve">
<style type="text/css">
	.st0{fill:#EAD88C;}
	.st1{fill:none;stroke:#000000;stroke-width:3;stroke-miterlimit:10;}
	.st2{fill:none;}
</style>
<title>clear-nightAsset 158colored</title>
<g>
	<path class="st0" d="M28.9,11.5C16.1,13,6.9,24.4,8.1,37.3C9.3,50.1,20.8,59.4,33.5,58c3-0.4,5.7-1.2,8.5-2.7
		c-1.6-1.1-3-2.3-4.3-3.7c-4.5-4.2-7.6-9.6-8.6-15.7C28,28.5,30,21.4,32.3,16.5c0.8-1.6,1.6-3.4,2.6-4.9C33,11.3,31,11.3,28.9,11.5z
		"/>
	<path class="st1" d="M28.9,11.5C16.1,13,6.9,24.4,8.1,37.3C9.3,50.1,20.8,59.4,33.5,58c3-0.4,5.7-1.2,8.5-2.7
		c-1.6-1.1-3-2.3-4.3-3.7c-4.5-4.2-7.6-9.6-8.6-15.7C28,28.5,30,21.4,32.3,16.5c0.8-1.6,1.6-3.4,2.6-4.9C33,11.3,31,11.3,28.9,11.5z
		"/>
	<path class="st2" d="M50.1,14l-0.4-0.3c-5-3.6-11.1-5.2-18.3-4.6c-3.9,0.3-11.3,4-11.5,4.2C10.7,18.7,6,31.2,9,42.2
		c0.3,1,0.6,1.9,1,2.9c1.4,3.6,3.7,6.9,6.6,9.5"/>
</g>
</svg>
