<svg xmlns="http://www.w3.org/2000/svg" viewBox="0 0 84.06 43.94"><defs><style>.cls-1{fill:#cae3f6;}.cls-2{fill:none;stroke:#0a0b0b;stroke-miterlimit:10;stroke-width:4px;}</style></defs><title>cloudyAsset 161colored</title><g id="Layer_2" data-name="Layer 2"><g id="Layer_1-2" data-name="Layer 1"><path class="cls-1" d="M61.52,42.56H9.42c-2.18,0-5.08-1.72-5.91-3.59a9.47,9.47,0,0,1-.41-9.55,9.79,9.79,0,0,1,9.38-5c1.57.08,1.89-.49,2.09-1.8A23.9,23.9,0,0,1,34.26,2.88l.12,0a24,24,0,0,1,16,3.38c.47.29.94.6,1.4,1a24.37,24.37,0,0,1,6.46,7.32L59,15.78"/><path class="cls-1" d="M36.7,29.41a10.32,10.32,0,0,1,8.22-8.68,13.4,13.4,0,0,1,2-.15,10.68,10.68,0,0,1,7.19,2.78A10.16,10.16,0,0,1,57,28.12"/><path class="cls-1" d="M50.77,21.22c3-4.64,9.95-6.35,15.49-5.21a12.57,12.57,0,0,1,10,9.69c.7,3.05.93,4.22,3.29,5.85,3.36,2.33,3.12,7.54.4,10a4.26,4.26,0,0,1-2.6,1h-18"/><line class="cls-1" x1="65.18" y1="42.55" x2="70.57" y2="42.55"/><path class="cls-2" d="M61.52,41.94H9.42c-2.18,0-5.08-1.72-5.91-3.58A9.49,9.49,0,0,1,3.1,28.8a9.79,9.79,0,0,1,9.38-5c1.57.08,1.89-.49,2.09-1.79A23.9,23.9,0,0,1,34.26,2.26l.12,0a24.08,24.08,0,0,1,16,3.38c.47.29.94.61,1.4,1a24.49,24.49,0,0,1,6.46,7.32L59,15.16"/><path class="cls-2" d="M36.7,28.79a10.31,10.31,0,0,1,8.22-8.67A12.28,12.28,0,0,1,47,20a10.64,10.64,0,0,1,7.19,2.79A10.08,10.08,0,0,1,57,27.5"/><path class="cls-2" d="M50.77,20.61c3-4.65,9.95-6.36,15.49-5.22a12.58,12.58,0,0,1,10,9.69c.7,3.06.93,4.22,3.29,5.86,3.36,2.32,3.12,7.53.4,10a4.26,4.26,0,0,1-2.6,1H74"/><line class="cls-2" x1="65.18" y1="41.93" x2="70.57" y2="41.93"/></g></g></svg>