<svg xmlns="http://www.w3.org/2000/svg" viewBox="0 0 79.62 81.74"><defs><style>.cls-1{fill:#cae3f6;}.cls-2,.cls-3{fill:none;stroke-miterlimit:10;}.cls-2{stroke:#231f20;stroke-width:3.5px;}.cls-3{stroke:#0a0b0b;stroke-width:4px;}</style></defs><title>hailAsset 175colored</title><g id="Layer_2" data-name="Layer 2"><g id="Layer_1-2" data-name="Layer 1"><circle class="cls-1" cx="18.82" cy="55.71" r="7.76"/><circle class="cls-1" cx="39.06" cy="55.71" r="7.76"/><circle class="cls-1" cx="59.85" cy="55.71" r="7.76"/><circle class="cls-1" cx="29.18" cy="74.35" r="5.64"/><circle class="cls-1" cx="47.29" cy="74.35" r="5.64"/><path class="cls-1" d="M58.62,40.09H9.71a6.89,6.89,0,0,1-5.55-3.41,9,9,0,0,1,8.42-13.85c1.47.08,1.78-.47,2-1.71A22.63,22.63,0,0,1,33,2.29l.11,0a22.34,22.34,0,0,1,15,3.22c.44.28.88.58,1.31.91a23.1,23.1,0,0,1,6.07,7l.71,1.21"/><path class="cls-1" d="M35.31,27.57A9.77,9.77,0,0,1,43,19.3a10.75,10.75,0,0,1,1.91-.14,9.91,9.91,0,0,1,6.75,2.65,9.55,9.55,0,0,1,2.67,4.53"/><path class="cls-1" d="M48.52,19.77c2.83-4.43,9.34-6.06,14.54-5A11.88,11.88,0,0,1,72.47,24c.67,2.91.88,4,3.09,5.58,3.16,2.22,2.94,7.18.38,9.52a3.92,3.92,0,0,1-2.44,1H56.58"/><line class="cls-1" x1="62.05" y1="40.09" x2="67.11" y2="40.09"/><circle class="cls-2" cx="18.82" cy="55.71" r="7.76"/><circle class="cls-2" cx="39.06" cy="55.71" r="7.76"/><circle class="cls-2" cx="59.85" cy="55.71" r="7.76"/><circle class="cls-2" cx="29.18" cy="74.35" r="5.64"/><circle class="cls-2" cx="47.29" cy="74.35" r="5.64"/><path class="cls-3" d="M58.22,39.72H9a7,7,0,0,1-5.59-3.38,9,9,0,0,1-.38-9,9.25,9.25,0,0,1,8.86-4.71c1.48.08,1.79-.46,2-1.69A22.6,22.6,0,0,1,32.47,2.24h.12A22.69,22.69,0,0,1,47.66,5.42q.66.41,1.32.9a23.26,23.26,0,0,1,6.11,6.91l.71,1.2"/><path class="cls-3" d="M34.77,27.31a9.73,9.73,0,0,1,7.77-8.2A10.79,10.79,0,0,1,44.46,19a10.05,10.05,0,0,1,6.79,2.62,9.68,9.68,0,0,1,2.69,4.49"/><path class="cls-3" d="M48.06,19.57c2.85-4.38,9.4-6,14.63-4.92a11.85,11.85,0,0,1,9.47,9.15c.67,2.89.88,4,3.11,5.53,3.18,2.2,3,7.12.39,9.44a4,4,0,0,1-2.47.95H70"/><line class="cls-3" x1="61.67" y1="39.72" x2="66.77" y2="39.72"/></g></g></svg>