<svg xmlns="http://www.w3.org/2000/svg" viewBox="0 0 113.56 78.96"><defs><style>.cls-1{fill:#f5b952;}.cls-2{fill:#cae3f6;}.cls-3,.cls-4,.cls-5{fill:none;stroke-miterlimit:10;stroke-width:4px;}.cls-3,.cls-4{stroke:#000;}.cls-4{stroke-linecap:square;}.cls-5{stroke:#0a0b0b;}</style></defs><title>partly-cloudy-dayAsset 159colored</title><g id="Layer_2" data-name="Layer 2"><g id="Layer_1-2" data-name="Layer 1"><path class="cls-1" d="M40.4,15.88A24.8,24.8,0,1,0,65.19,40.67,24.82,24.82,0,0,0,40.4,15.88Z"/><path class="cls-2" d="M91,77H38.92c-2.19,0-5.09-1.72-5.92-3.58a9.49,9.49,0,0,1-.4-9.56,9.78,9.78,0,0,1,9.37-5c1.57.08,1.9-.5,2.09-1.8a23.93,23.93,0,0,1,19.7-19.77l.12,0a24,24,0,0,1,16,3.39c.46.28.93.6,1.39.94a24.66,24.66,0,0,1,6.47,7.32l.75,1.27"/><path class="cls-2" d="M66.19,63.82a10.32,10.32,0,0,1,8.23-8.68,11.11,11.11,0,0,1,2-.15,10.62,10.62,0,0,1,7.19,2.78,10,10,0,0,1,2.84,4.75"/><path class="cls-2" d="M80.26,55.63c3-4.65,9.95-6.36,15.49-5.22a12.58,12.58,0,0,1,10,9.69c.71,3.06.93,4.22,3.29,5.86,3.36,2.33,3.13,7.53.41,10a4.19,4.19,0,0,1-2.61,1h-18"/><line class="cls-2" x1="94.67" y1="76.95" x2="100.07" y2="76.95"/><path class="cls-3" d="M63.22,31A24.79,24.79,0,1,0,28.14,62"/><line class="cls-4" x1="40.21" y1="15.51" x2="40.21" y2="2"/><line class="cls-4" x1="15.51" y1="40.47" x2="2" y2="40.47"/><line class="cls-4" x1="22.7" y1="22.88" x2="13.14" y2="13.32"/><line class="cls-4" x1="57.81" y1="22.7" x2="67.36" y2="13.14"/><line class="cls-4" x1="22.88" y1="57.99" x2="13.32" y2="67.54"/><path class="cls-5" d="M91,77H38.92c-2.19,0-5.09-1.72-5.92-3.58a9.49,9.49,0,0,1-.4-9.56,9.78,9.78,0,0,1,9.37-5c1.57.08,1.9-.5,2.09-1.8a23.93,23.93,0,0,1,19.7-19.77l.12,0a24,24,0,0,1,16,3.39c.46.28.93.6,1.39.94a24.66,24.66,0,0,1,6.47,7.32l.75,1.27"/><path class="cls-5" d="M66.19,63.82a10.32,10.32,0,0,1,8.23-8.68,11.11,11.11,0,0,1,2-.15,10.62,10.62,0,0,1,7.19,2.78,10,10,0,0,1,2.84,4.75"/><path class="cls-5" d="M80.26,55.63c3-4.65,9.95-6.36,15.49-5.22a12.58,12.58,0,0,1,10,9.69c.71,3.06.93,4.22,3.29,5.86,3.36,2.33,3.13,7.53.41,10a4.19,4.19,0,0,1-2.61,1h-3.36"/><line class="cls-5" x1="94.67" y1="76.95" x2="100.07" y2="76.95"/></g></g></svg>