<?xml version="1.0" encoding="utf-8"?>
<!-- Generator: Adobe Illustrator 19.0.0, SVG Export Plug-In . SVG Version: 6.00 Build 0)  -->
<svg version="1.1" id="Layer_1" xmlns="http://www.w3.org/2000/svg" xmlns:xlink="http://www.w3.org/1999/xlink" x="0px" y="0px"
	 viewBox="19 0.8 101.3 63.2" style="enable-background:new 19 0.8 101.3 63.2;" xml:space="preserve">
<style type="text/css">
	.st0{fill:#EAD88C;}
	.st1{fill:none;stroke:#000000;stroke-width:3;stroke-miterlimit:10;}
	.st2{fill:none;}
	.st3{fill:#CAE3F6;}
	.st4{fill:none;stroke:#0A0B0B;stroke-width:4;stroke-miterlimit:10;}
</style>
<g>
	<g>
		<path class="st0" d="M41.9,5.2C29.1,6.7,19.9,18.1,21.1,31c1.3,12.8,12.7,22,25.4,20.7c3-0.4,5.7-1.2,8.5-2.7
			c-1.6-1.1-3-2.3-4.3-3.7c-4.5-4.2-7.6-9.6-8.6-15.7C41,22.2,43,15.1,45.3,10.2c0.8-1.6,1.6-3.4,2.6-4.9C46,4.9,43.9,4.9,41.9,5.2z
			"/>
		<path class="st1" d="M41.9,5.2C29.1,6.7,19.9,18.1,21.1,31c1.3,12.8,12.7,22,25.4,20.7c3-0.4,5.7-1.2,8.5-2.7
			c-1.6-1.1-3-2.3-4.3-3.7c-4.5-4.2-7.6-9.6-8.6-15.7C41,22.2,43,15.1,45.3,10.2c0.8-1.6,1.6-3.4,2.6-4.9C46,4.9,43.9,4.9,41.9,5.2z
			"/>
		<path class="st2" d="M63,7.6l-0.4-0.3c-5-3.6-11.1-5.2-18.3-4.6C40.4,3,33,6.7,32.8,6.9c-9.2,5.4-13.9,17.9-10.9,28.9
			c0.3,1,0.6,1.9,1,2.9c1.4,3.6,3.7,6.9,6.6,9.5"/>
	</g>
	<g>
		<path class="st3" d="M97.7,61.9H45.6c-2.2,0-5.1-1.7-5.9-3.6c-1.9-2.9-2-6.5-0.4-9.6c1.9-3.4,5.5-5.3,9.4-5
			c1.6,0.1,1.9-0.5,2.1-1.8c1.7-10.1,9.6-18.1,19.7-19.7h0.1c5.5-0.8,11.2,0.4,16,3.4c0.5,0.3,0.9,0.6,1.4,0.9
			c2.6,2,4.8,4.5,6.5,7.3l0.8,1.3"/>
		<path class="st3" d="M72.9,48.8c0.6-4.3,3.9-7.8,8.2-8.7c0.7-0.1,1.3-0.2,2-0.2c2.7,0,5.2,1,7.2,2.8c1.4,1.3,2.4,2.9,2.9,4.8"/>
		<path class="st3" d="M87,40.6c3-4.6,10-6.4,15.5-5.2c5,0.9,8.9,4.7,10,9.7c0.7,3.1,0.9,4.2,3.3,5.9c3.4,2.3,3.1,7.5,0.4,10
			c-0.7,0.6-1.6,1-2.6,1h-18"/>
		<line class="st2" x1="101.4" y1="61.9" x2="106.8" y2="61.9"/>
		<path class="st4" d="M97.7,61.8H45.6c-2.2,0-5.1-1.7-5.9-3.6c-1.9-2.9-2-6.5-0.4-9.5c1.9-3.4,5.5-5.3,9.4-5
			c1.6,0.1,1.9-0.5,2.1-1.8c1.6-10.1,9.6-18.1,19.7-19.8h0.1c5.5-0.8,11.2,0.4,16,3.4c0.5,0.3,1,0.6,1.4,0.9c2.6,2,4.8,4.5,6.5,7.3
			l0.8,1.3"/>
		<path class="st4" d="M72.9,48.6c0.6-4.3,3.9-7.8,8.2-8.7c0.7-0.1,1.3-0.2,2-0.1c2.7,0,5.2,1,7.2,2.8c1.4,1.3,2.4,2.9,2.9,4.8"/>
		<path class="st4" d="M87,40.5c3-4.6,10-6.3,15.5-5.2c5,0.9,8.9,4.7,10,9.7c0.7,3,0.9,4.2,3.3,5.9c3.4,2.3,3.1,7.5,0.4,10
			c-0.7,0.6-1.6,1-2.6,1h-3.3"/>
		<line class="st4" x1="101.4" y1="61.8" x2="106.8" y2="61.8"/>
	</g>
</g>
</svg>
