<svg xmlns="http://www.w3.org/2000/svg" viewBox="0 0 101.39 100.4"><defs><style>.cls-1{fill:#f5b952;}.cls-2{fill:#cae3f6;}.cls-3,.cls-4,.cls-5,.cls-6,.cls-7{fill:none;stroke-miterlimit:10;}.cls-3,.cls-4,.cls-5,.cls-6{stroke:#000;}.cls-3{stroke-width:2.5px;}.cls-4{stroke-linecap:round;stroke-width:3px;}.cls-5,.cls-6,.cls-7{stroke-width:4px;}.cls-6{stroke-linecap:square;}.cls-7{stroke:#0a0b0b;}</style></defs><title>rain-snow-showers-dayAsset 167colored</title><g id="Layer_2" data-name="Layer 2"><g id="Layer_1-2" data-name="Layer 1"><path class="cls-1" d="M36.52,13.88A22.63,22.63,0,1,0,59.15,36.5,22.65,22.65,0,0,0,36.52,13.88Z"/><path class="cls-2" d="M81.18,68.4H35a6.55,6.55,0,0,1-5.25-3.17,8.41,8.41,0,0,1-.36-8.47,8.68,8.68,0,0,1,8.31-4.41c1.4.07,1.69-.44,1.86-1.6A21.19,21.19,0,0,1,57,33.23l.1,0a21.34,21.34,0,0,1,14.15,3c.41.25.83.54,1.24.84a21.86,21.86,0,0,1,5.73,6.49l.66,1.13"/><path class="cls-2" d="M59.17,56.75a9.15,9.15,0,0,1,7.3-7.69,11.41,11.41,0,0,1,1.79-.14,9.49,9.49,0,0,1,6.38,2.47,8.9,8.9,0,0,1,2.52,4.21"/><path class="cls-2" d="M71.65,49.49c2.67-4.11,8.82-5.63,13.73-4.62a11.16,11.16,0,0,1,8.89,8.59c.62,2.71.82,3.74,2.92,5.19,3,2.06,2.77,6.68.35,8.86a3.8,3.8,0,0,1-2.31.89h-16"/><line class="cls-2" x1="84.42" y1="68.4" x2="89.2" y2="68.4"/><polyline class="cls-3" points="36.23 97.89 41.6 92.23 46.88 97.72"/><polyline class="cls-3" points="46.88 75.75 41.52 81.4 36.23 75.91"/><line class="cls-3" x1="41.51" y1="73.04" x2="41.51" y2="100.4"/><polyline class="cls-3" points="52.72 92.05 47.06 86.68 52.55 81.4"/><polyline class="cls-3" points="30.58 81.4 36.23 86.76 30.75 92.05"/><line class="cls-3" x1="27.88" y1="86.76" x2="55.24" y2="86.76"/><line class="cls-4" x1="91.22" y1="91.09" x2="85.02" y2="96.97"/><line class="cls-4" x1="70.12" y1="91.09" x2="63.91" y2="96.97"/><line class="cls-4" x1="91.22" y1="79.3" x2="85.02" y2="85.18"/><line class="cls-4" x1="70.12" y1="79.3" x2="63.91" y2="85.18"/><path class="cls-5" d="M56.42,27.77A22,22,0,1,0,25.24,55.29"/><line class="cls-6" x1="35.97" y1="14.01" x2="35.97" y2="2"/><line class="cls-6" x1="14.01" y1="36.2" x2="2" y2="36.2"/><line class="cls-6" x1="20.4" y1="20.56" x2="11.9" y2="12.06"/><line class="cls-6" x1="51.61" y1="20.4" x2="60.1" y2="11.9"/><line class="cls-6" x1="20.56" y1="51.77" x2="12.06" y2="60.26"/><path class="cls-7" d="M81.13,68.63H34.82a6.53,6.53,0,0,1-5.26-3.18A8.4,8.4,0,0,1,29.2,57a8.69,8.69,0,0,1,8.33-4.43c1.4.07,1.69-.44,1.86-1.6A21.26,21.26,0,0,1,56.9,33.36l.11,0a21.37,21.37,0,0,1,14.18,3c.41.26.83.54,1.24.84a21.74,21.74,0,0,1,5.75,6.51l.67,1.13"/><path class="cls-7" d="M59.06,57a9.17,9.17,0,0,1,7.31-7.71,10.54,10.54,0,0,1,1.81-.14,9.47,9.47,0,0,1,6.39,2.47A9,9,0,0,1,77.1,55.8"/><path class="cls-7" d="M71.57,49.67C74.25,45.54,80.41,44,85.34,45a11.19,11.19,0,0,1,8.91,8.62c.63,2.71.83,3.75,2.93,5.2,3,2.07,2.78,6.7.36,8.89a3.83,3.83,0,0,1-2.32.89h-3"/><line class="cls-7" x1="84.38" y1="68.63" x2="89.18" y2="68.63"/></g></g></svg>