<?xml version="1.0" encoding="utf-8"?>
<!-- Generator: Adobe Illustrator 19.0.0, SVG Export Plug-In . SVG Version: 6.00 Build 0)  -->
<svg version="1.1" id="Layer_1" xmlns="http://www.w3.org/2000/svg" xmlns:xlink="http://www.w3.org/1999/xlink" x="0px" y="0px"
	 viewBox="16 -13.1 95.9 90.1" style="enable-background:new 16 -13.1 95.9 90.1;" xml:space="preserve">
<style type="text/css">
	.st0{fill:#EAD88C;}
	.st1{fill:none;stroke:#000000;stroke-width:3;stroke-miterlimit:10;}
	.st2{fill:none;}
	.st3{fill:#CAE3F6;}
	.st4{fill:none;stroke:#000000;stroke-width:2.5;stroke-miterlimit:10;}
	.st5{fill:none;stroke:#000000;stroke-width:3;stroke-linecap:round;stroke-miterlimit:10;}
	.st6{fill:none;stroke:#0A0B0B;stroke-width:4;stroke-miterlimit:10;}
</style>
<g>
	<g>
		<path class="st0" d="M39.3-9.5C26.5-8,17.3,3.4,18.5,16.3C19.8,29.1,31.2,38.3,44,37c3-0.4,5.7-1.2,8.5-2.7
			c-1.6-1.1-3-2.3-4.3-3.7c-4.5-4.2-7.6-9.6-8.6-15.7c-1.1-7.4,0.9-14.5,3.2-19.4c0.8-1.6,1.6-3.4,2.6-4.9
			C43.4-9.8,41.3-9.8,39.3-9.5z"/>
		<path class="st1" d="M39.3-9.5C26.5-8,17.3,3.4,18.5,16.3C19.8,29.1,31.2,38.3,44,37c3-0.4,5.7-1.2,8.5-2.7
			c-1.6-1.1-3-2.3-4.3-3.7c-4.5-4.2-7.6-9.6-8.6-15.7c-1.1-7.4,0.9-14.5,3.2-19.4c0.8-1.6,1.6-3.4,2.6-4.9
			C43.4-9.8,41.3-9.8,39.3-9.5z"/>
		<path class="st2" d="M60.4-7.1L60-7.4C55-11,48.9-12.6,41.7-12c-3.9,0.3-11.3,4-11.5,4.2C21-2.4,16.3,10.1,19.3,21.1
			c0.3,1,0.6,1.9,1,2.9c1.4,3.6,3.7,6.9,6.6,9.5"/>
	</g>
	<path class="st3" d="M90.6,43.3H41.9c-2.3-0.1-4.4-1.4-5.5-3.4c-2.7-4.2-1.4-9.8,2.8-12.4c1.7-1.1,3.6-1.5,5.6-1.4
		c1.5,0.1,1.8-0.5,2-1.7c1.5-9.6,8.8-17.1,18.4-18.8h0.1C70.5,4.9,75.8,6,80.2,8.8c0.4,0.3,0.9,0.6,1.3,0.9c2.4,1.9,4.5,4.3,6,6.9
		l0.7,1.2"/>
	<path class="st3" d="M67.4,30.8c0.5-4.1,3.6-7.4,7.7-8.2c0.6-0.1,1.3-0.1,1.9-0.1c2.5,0,4.9,0.9,6.7,2.6c1.3,1.2,2.2,2.8,2.7,4.5"
		/>
	<path class="st3" d="M80.5,24c2.8-4.4,9.3-6,14.5-5c4.7,0.9,8.4,4.5,9.4,9.2c0.7,2.9,0.9,4,3.1,5.6c3.1,2.2,2.9,7.1,0.4,9.5
		c-0.7,0.6-1.5,0.9-2.4,1H88.7"/>
	<line class="st2" x1="94" y1="43.3" x2="99.1" y2="43.3"/>
	<polyline class="st4" points="46.7,72.5 52.1,66.8 57.4,72.3 	"/>
	<polyline class="st4" points="57.4,50.3 52,56 46.7,50.5 	"/>
	<line class="st4" x1="52" y1="47.6" x2="52" y2="75"/>
	<polyline class="st4" points="63.2,66.6 57.6,61.3 63.1,56 	"/>
	<polyline class="st4" points="41.1,56 46.7,61.4 41.2,66.6 	"/>
	<line class="st4" x1="38.4" y1="61.4" x2="65.7" y2="61.4"/>
	<line class="st5" x1="101.7" y1="65.7" x2="95.5" y2="71.6"/>
	<line class="st5" x1="80.6" y1="65.7" x2="74.4" y2="71.6"/>
	<line class="st5" x1="101.7" y1="53.9" x2="95.5" y2="59.8"/>
	<line class="st5" x1="80.6" y1="53.9" x2="74.4" y2="59.8"/>
	<path class="st6" d="M90.5,43.8H41.3c-2.3-0.1-4.4-1.4-5.6-3.4c-1.7-2.7-1.9-6.2-0.4-9c1.8-3.2,5.2-5,8.8-4.7
		c1.5,0.1,1.8-0.5,2-1.7c1.5-9.6,9-17.1,18.6-18.7h0.1C70,5.6,75.4,6.7,79.9,9.5c0.4,0.3,0.9,0.6,1.3,0.9c2.5,1.9,4.6,4.2,6.1,6.9
		l0.7,1.2"/>
	<path class="st6" d="M67.1,30.4c0.6-4.1,3.7-7.4,7.8-8.2c0.6-0.1,1.3-0.2,1.9-0.1c2.5,0,4.9,0.9,6.8,2.6c1.3,1.2,2.2,2.8,2.7,4.5"
		/>
	<path class="st6" d="M80.3,22.7c2.9-4.4,9.4-6,14.6-4.9c4.7,0.9,8.4,4.5,9.5,9.2c0.7,2.9,0.9,4,3.1,5.5c3.2,2.2,3,7.1,0.4,9.4
		c-0.7,0.6-1.6,0.9-2.5,0.9h-3.2"/>
	<line class="st6" x1="93.9" y1="42.8" x2="99" y2="42.8"/>
</g>
</svg>
