<svg xmlns="http://www.w3.org/2000/svg" viewBox="0 0 79.62 80.58"><defs><style>.cls-1{fill:#cae3f6;}.cls-2,.cls-3,.cls-4{fill:none;stroke-miterlimit:10;}.cls-2,.cls-3{stroke:#000;}.cls-2{stroke-width:1.5px;}.cls-3{stroke-width:2px;}.cls-4{stroke:#0a0b0b;stroke-width:4px;}</style></defs><title>snowAsset 176colored</title><g id="Layer_2" data-name="Layer 2"><g id="Layer_1-2" data-name="Layer 1"><path class="cls-1" d="M58.62,39.79H9.71a6.89,6.89,0,0,1-5.55-3.41,9,9,0,0,1,8.42-13.85c1.47.08,1.78-.47,2-1.71A22.62,22.62,0,0,1,33,2l.11,0a22.28,22.28,0,0,1,15,3.22,15.43,15.43,0,0,1,1.31.91,23.1,23.1,0,0,1,6.07,7l.71,1.21"/><path class="cls-1" d="M35.31,27.27A9.77,9.77,0,0,1,43,19a10.75,10.75,0,0,1,1.91-.14,9.86,9.86,0,0,1,6.75,2.65A9.55,9.55,0,0,1,54.36,26"/><path class="cls-1" d="M48.52,19.47c2.83-4.43,9.34-6.06,14.54-5a11.88,11.88,0,0,1,9.41,9.23c.67,2.91.88,4,3.09,5.58,3.16,2.22,2.94,7.18.38,9.52a3.92,3.92,0,0,1-2.44,1H56.58"/><line class="cls-1" x1="62.05" y1="39.79" x2="67.11" y2="39.79"/><polyline class="cls-2" points="48.16 79.41 50.66 76.78 53.11 79.34"/><polyline class="cls-2" points="53.11 69.11 50.62 71.74 48.16 69.19"/><line class="cls-2" x1="50.62" y1="67.86" x2="50.62" y2="80.58"/><polyline class="cls-2" points="55.83 76.7 53.2 74.2 55.75 71.74"/><polyline class="cls-2" points="45.53 71.74 48.16 74.24 45.61 76.7"/><line class="cls-2" x1="44.27" y1="74.24" x2="57" y2="74.24"/><polyline class="cls-2" points="28.51 79.41 31 76.78 33.46 79.34"/><polyline class="cls-2" points="33.46 69.11 30.97 71.74 28.51 69.19"/><line class="cls-2" x1="30.97" y1="67.86" x2="30.97" y2="80.58"/><polyline class="cls-2" points="36.18 76.7 33.55 74.2 36.1 71.74"/><polyline class="cls-2" points="25.88 71.74 28.51 74.24 25.96 76.7"/><line class="cls-2" x1="24.62" y1="74.24" x2="37.35" y2="74.24"/><polyline class="cls-3" points="64.59 62.86 68.03 59.24 71.41 62.76"/><polyline class="cls-3" points="71.41 48.68 67.98 52.3 64.59 48.78"/><line class="cls-3" x1="67.98" y1="46.94" x2="67.98" y2="64.47"/><polyline class="cls-3" points="75.16 59.12 71.53 55.68 75.05 52.3"/><polyline class="cls-3" points="60.97 52.3 64.59 55.74 61.08 59.12"/><line class="cls-3" x1="59.24" y1="55.74" x2="76.77" y2="55.74"/><polyline class="cls-3" points="37.53 62.86 40.97 59.24 44.35 62.76"/><polyline class="cls-3" points="44.35 48.68 40.91 52.3 37.53 48.78"/><line class="cls-3" x1="40.91" y1="46.94" x2="40.91" y2="64.47"/><polyline class="cls-3" points="48.09 59.12 44.47 55.68 47.98 52.3"/><polyline class="cls-3" points="33.91 52.3 37.53 55.74 34.01 59.12"/><line class="cls-3" x1="32.17" y1="55.74" x2="49.7" y2="55.74"/><polyline class="cls-3" points="10.46 62.86 13.9 59.24 17.29 62.76"/><polyline class="cls-3" points="17.29 48.68 13.85 52.3 10.46 48.78"/><line class="cls-3" x1="13.85" y1="46.94" x2="13.85" y2="64.47"/><polyline class="cls-3" points="21.03 59.12 17.4 55.68 20.92 52.3"/><polyline class="cls-3" points="6.84 52.3 10.46 55.74 6.95 59.12"/><line class="cls-3" x1="5.11" y1="55.74" x2="22.64" y2="55.74"/><path class="cls-4" d="M58.22,39.72H9a7,7,0,0,1-5.59-3.38,9,9,0,0,1-.38-9,9.25,9.25,0,0,1,8.86-4.71c1.48.08,1.79-.46,2-1.69A22.6,22.6,0,0,1,32.47,2.24h.12A22.69,22.69,0,0,1,47.66,5.42q.66.41,1.32.9a23.26,23.26,0,0,1,6.11,6.91l.71,1.2"/><path class="cls-4" d="M34.77,27.31a9.73,9.73,0,0,1,7.77-8.2A10.79,10.79,0,0,1,44.46,19a10.05,10.05,0,0,1,6.79,2.62,9.68,9.68,0,0,1,2.69,4.49"/><path class="cls-4" d="M48.06,19.57c2.85-4.38,9.4-6,14.63-4.92a11.85,11.85,0,0,1,9.47,9.15c.67,2.89.88,4,3.11,5.53,3.18,2.2,3,7.12.39,9.44a4,4,0,0,1-2.47.95H70"/><line class="cls-4" x1="61.67" y1="39.72" x2="66.77" y2="39.72"/></g></g></svg>