<?xml version="1.0" encoding="utf-8"?>
<!-- Generator: Adobe Illustrator 19.0.0, SVG Export Plug-In . SVG Version: 6.00 Build 0)  -->
<svg version="1.1" id="Layer_1" xmlns="http://www.w3.org/2000/svg" xmlns:xlink="http://www.w3.org/1999/xlink" x="0px" y="0px"
	 viewBox="16 -10.8 95.9 85.8" style="enable-background:new 16 -10.8 95.9 85.8;" xml:space="preserve">
<style type="text/css">
	.st0{fill:#EAD88C;}
	.st1{fill:none;stroke:#000000;stroke-width:3;stroke-miterlimit:10;}
	.st2{fill:none;}
	.st3{fill:#CAE3F6;}
	.st4{fill:none;stroke:#0A0B0B;stroke-width:4;stroke-miterlimit:10;}
	.st5{fill:none;stroke:#000000;stroke-width:3;stroke-linecap:round;stroke-miterlimit:10;}
</style>
<g>
	<g>
		<path class="st0" d="M40-7.2C27.2-5.7,18,5.7,19.2,18.6c1.2,12.8,12.7,22.1,25.4,20.7c3-0.4,5.7-1.2,8.5-2.7
			c-1.6-1.1-3-2.3-4.3-3.7c-4.5-4.2-7.6-9.6-8.6-15.7c-1.1-7.4,0.9-14.5,3.2-19.4C44.2-3.8,45-5.6,46-7.1C44.1-7.5,42-7.5,40-7.2z"
			/>
		<path class="st1" d="M40-7.2C27.2-5.7,18,5.7,19.2,18.6c1.2,12.8,12.7,22.1,25.4,20.7c3-0.4,5.7-1.2,8.5-2.7
			c-1.6-1.1-3-2.3-4.3-3.7c-4.5-4.2-7.6-9.6-8.6-15.7c-1.1-7.4,0.9-14.5,3.2-19.4C44.2-3.8,45-5.6,46-7.1C44.1-7.5,42-7.5,40-7.2z"
			/>
		<path class="st2" d="M61.1-4.8l-0.4-0.3c-5-3.6-11.1-5.2-18.3-4.6c-3.9,0.3-11.3,4-11.5,4.2C21.7-0.1,17,12.4,20,23.4
			c0.3,1,0.6,1.9,1,2.9c1.4,3.6,3.7,6.9,6.6,9.5"/>
	</g>
	<path class="st3" d="M90.4,49.6H40.9c-2.3-0.1-4.4-1.4-5.6-3.4c-1.8-2.7-1.9-6.2-0.4-9.1c1.8-3.2,5.3-5,8.9-4.7
		c1.5,0.1,1.8-0.5,2-1.7c1.6-9.6,9.1-17.2,18.7-18.8h0.1c5.3-0.7,10.6,0.4,15.2,3.2c0.4,0.3,0.9,0.6,1.3,0.9c2.5,1.9,4.6,4.3,6.2,7
		l0.7,1.2"/>
	<path class="st3" d="M66.8,37.1c0.6-4.1,3.7-7.4,7.8-8.3c0.6-0.1,1.3-0.2,1.9-0.1c2.5,0,5,0.9,6.8,2.6c1.3,1.2,2.2,2.8,2.7,4.5"/>
	<path class="st3" d="M80.1,29.4c2.9-4.4,9.5-6,14.7-5c4.7,0.9,8.5,4.5,9.5,9.2c0.7,2.9,0.9,4,3.1,5.6c3.2,2.2,3,7.2,0.4,9.5
		c-0.7,0.6-1.6,1-2.5,1H88.2"/>
	<line class="st2" x1="94.9" y1="47.6" x2="100" y2="47.6"/>
	<path class="st4" d="M90.5,49H41.3c-2.3-0.1-4.4-1.4-5.6-3.4c-1.7-2.7-1.9-6.2-0.4-9c1.8-3.2,5.2-5,8.9-4.7c1.5,0.1,1.8-0.5,2-1.7
		c1.5-9.6,9-17.1,18.6-18.7h0.1c5.2-0.7,10.6,0.4,15.1,3.2c0.4,0.3,0.9,0.6,1.3,0.9c2.5,1.9,4.6,4.2,6.1,6.9l0.7,1.2"/>
	<path class="st4" d="M67,36.6c0.6-4.1,3.7-7.4,7.8-8.2c0.6-0.1,1.3-0.2,1.9-0.1c2.5,0,4.9,0.9,6.8,2.6c1.3,1.2,2.2,2.8,2.7,4.5"/>
	<path class="st4" d="M80.3,28.9c2.9-4.4,9.4-6,14.6-4.9c4.7,0.9,8.4,4.5,9.5,9.2c0.7,2.9,0.9,4,3.1,5.5c3.2,2.2,3,7.1,0.4,9.4
		c-0.7,0.6-1.6,0.9-2.5,0.9h-3.2"/>
	<line class="st4" x1="94.9" y1="47" x2="100" y2="47"/>
	<line class="st5" x1="96.7" y1="67.5" x2="90.5" y2="73.4"/>
	<line class="st5" x1="54.5" y1="67.5" x2="48.3" y2="73.4"/>
	<line class="st5" x1="75.6" y1="67.5" x2="69.4" y2="73.4"/>
	<line class="st5" x1="96.7" y1="54.7" x2="90.5" y2="60.6"/>
	<line class="st5" x1="54.5" y1="54.7" x2="48.3" y2="60.6"/>
	<line class="st5" x1="75.6" y1="54.7" x2="69.4" y2="60.6"/>
</g>
</svg>
