<?xml version="1.0" encoding="utf-8"?>
<!-- Generator: Adobe Illustrator 19.0.0, SVG Export Plug-In . SVG Version: 6.00 Build 0)  -->
<svg version="1.1" id="Layer_1" xmlns="http://www.w3.org/2000/svg" xmlns:xlink="http://www.w3.org/1999/xlink" x="0px" y="0px"
	 viewBox="16 -16.1 95.9 97.1" style="enable-background:new 16 -16.1 95.9 97.1;" xml:space="preserve">
<style type="text/css">
	.st0{fill:#EAD88C;}
	.st1{fill:none;stroke:#000000;stroke-width:3;stroke-miterlimit:10;}
	.st2{fill:none;}
	.st3{fill:#CAE3F6;}
	.st4{fill:none;stroke:#000000;stroke-width:1.5;stroke-miterlimit:10;}
	.st5{fill:none;stroke:#000000;stroke-width:2;stroke-miterlimit:10;}
	.st6{fill:none;stroke:#0A0B0B;stroke-width:4;stroke-miterlimit:10;}
</style>
<g>
	<g>
		<path class="st0" d="M38.9-13.5C26.1-12,16.9-0.6,18.1,12.3c1.3,12.8,12.7,22,25.4,20.7c3-0.4,5.7-1.2,8.5-2.7
			c-1.6-1.1-3-2.3-4.3-3.7c-4.5-4.2-7.6-9.6-8.6-15.7C38,3.5,40-3.6,42.3-8.5c0.8-1.6,1.6-3.4,2.6-4.9C43-13.8,40.9-13.8,38.9-13.5z
			"/>
		<path class="st1" d="M38.9-13.5C26.1-12,16.9-0.6,18.1,12.3c1.3,12.8,12.7,22,25.4,20.7c3-0.4,5.7-1.2,8.5-2.7
			c-1.6-1.1-3-2.3-4.3-3.7c-4.5-4.2-7.6-9.6-8.6-15.7C38,3.5,40-3.6,42.3-8.5c0.8-1.6,1.6-3.4,2.6-4.9C43-13.8,40.9-13.8,38.9-13.5z
			"/>
		<path class="st2" d="M60-11.1l-0.4-0.3c-5-3.6-11.1-5.2-18.3-4.6c-3.9,0.3-11.3,4-11.5,4.2C20.6-6.4,15.9,6.1,18.9,17.1
			c0.3,1,0.6,1.9,1,2.9c1.4,3.6,3.7,6.9,6.6,9.5"/>
	</g>
	<path class="st3" d="M90.7,43.8H42.2c-2.3-0.1-4.3-1.4-5.5-3.4c-1.7-2.7-1.9-6.1-0.4-9c1.7-3.1,5.1-5,8.7-4.7
		c1.5,0.1,1.8-0.5,1.9-1.7c1.5-9.5,8.9-17,18.4-18.6h0.1c5.2-0.7,10.4,0.4,14.8,3.2c0.4,0.3,0.9,0.6,1.3,0.9c2.4,1.9,4.5,4.2,6,6.9
		l0.7,1.2"/>
	<path class="st3" d="M67.6,31.4c0.6-4.1,3.6-7.3,7.6-8.2c0.6-0.1,1.3-0.1,1.9-0.1c2.5,0,4.9,0.9,6.7,2.6c1.3,1.2,2.2,2.8,2.7,4.5"
		/>
	<path class="st3" d="M80.7,23.7c2.8-4.4,9.3-6,14.4-4.9c4.7,0.9,8.3,4.5,9.3,9.1c0.7,2.9,0.9,4,3.1,5.5c3.1,2.2,2.9,7.1,0.4,9.4
		c-0.7,0.6-1.5,0.9-2.4,0.9H88.7"/>
	<line class="st2" x1="94.1" y1="43.8" x2="99.1" y2="43.8"/>
	<polyline class="st4" points="79.8,79.9 82.2,77.3 84.6,79.8 	"/>
	<polyline class="st4" points="84.6,70 82.2,72.5 79.8,70 	"/>
	<line class="st4" x1="82.2" y1="68.8" x2="82.2" y2="81"/>
	<polyline class="st4" points="87.2,77.3 84.7,74.9 87.1,72.5 	"/>
	<polyline class="st4" points="77.3,72.5 79.8,74.9 77.4,77.3 	"/>
	<line class="st4" x1="76.1" y1="74.9" x2="88.3" y2="74.9"/>
	<polyline class="st4" points="60.9,79.9 63.3,77.3 65.7,79.8 	"/>
	<polyline class="st4" points="65.7,70 63.3,72.5 60.9,70 	"/>
	<line class="st4" x1="63.3" y1="68.8" x2="63.3" y2="81"/>
	<polyline class="st4" points="68.3,77.3 65.7,74.9 68.2,72.5 	"/>
	<polyline class="st4" points="58.4,72.5 60.9,74.9 58.4,77.3 	"/>
	<line class="st4" x1="57.2" y1="74.9" x2="69.4" y2="74.9"/>
	<polyline class="st5" points="95.6,64 98.9,60.5 102.2,63.8 	"/>
	<polyline class="st5" points="102.2,50.3 98.9,53.8 95.6,50.4 	"/>
	<line class="st5" x1="98.9" y1="48.6" x2="98.9" y2="65.5"/>
	<polyline class="st5" points="105.8,60.3 102.3,57 105.7,53.8 	"/>
	<polyline class="st5" points="92.1,53.8 95.6,57.1 92.2,60.3 	"/>
	<line class="st5" x1="90.5" y1="57.1" x2="107.3" y2="57.1"/>
	<polyline class="st5" points="69.6,64 72.9,60.5 76.1,63.8 	"/>
	<polyline class="st5" points="76.1,50.3 72.8,53.8 69.6,50.4 	"/>
	<line class="st5" x1="72.8" y1="48.6" x2="72.8" y2="65.5"/>
	<polyline class="st5" points="79.7,60.3 76.3,57 79.6,53.8 	"/>
	<polyline class="st5" points="66.1,53.8 69.6,57.1 66.2,60.3 	"/>
	<line class="st5" x1="64.4" y1="57.1" x2="81.3" y2="57.1"/>
	<polyline class="st5" points="43.5,64 46.8,60.5 50.1,63.8 	"/>
	<polyline class="st5" points="50.1,50.3 46.8,53.8 43.5,50.4 	"/>
	<line class="st5" x1="46.8" y1="48.6" x2="46.8" y2="65.5"/>
	<polyline class="st5" points="53.7,60.3 50.2,57 53.6,53.8 	"/>
	<polyline class="st5" points="40.1,53.8 43.5,57.1 40.1,60.3 	"/>
	<line class="st5" x1="38.4" y1="57.1" x2="55.2" y2="57.1"/>
	<path class="st6" d="M90.5,43.8H41.3c-2.3-0.1-4.4-1.4-5.6-3.4c-1.7-2.7-1.9-6.2-0.4-9c1.8-3.2,5.2-5,8.8-4.7
		c1.5,0.1,1.8-0.5,2-1.7c1.5-9.6,9-17.1,18.6-18.7h0.1C70,5.6,75.4,6.7,79.9,9.5c0.4,0.3,0.9,0.6,1.3,0.9c2.5,1.9,4.6,4.2,6.1,6.9
		l0.7,1.2"/>
	<path class="st6" d="M67.1,31.4c0.6-4.1,3.7-7.4,7.8-8.2c0.6-0.1,1.3-0.2,1.9-0.1c2.5,0,4.9,0.9,6.8,2.6c1.3,1.2,2.2,2.8,2.7,4.5"
		/>
	<path class="st6" d="M80.3,23.7c2.9-4.4,9.4-6,14.6-4.9c4.7,0.9,8.4,4.5,9.5,9.2c0.7,2.9,0.9,4,3.1,5.5c3.2,2.2,3,7.1,0.4,9.4
		c-0.7,0.6-1.6,0.9-2.5,0.9h-3.2"/>
	<line class="st6" x1="93.9" y1="43.8" x2="99" y2="43.8"/>
</g>
</svg>
