<svg xmlns="http://www.w3.org/2000/svg" viewBox="0 0 80.19 61.64"><defs><style>.cls-1{fill:#649f4e;}.cls-2,.cls-3{fill:none;stroke:#000;stroke-miterlimit:10;stroke-width:3px;}.cls-3{stroke-linecap:round;}</style></defs><title>sleetAsset 165colored</title><g id="Layer_2" data-name="Layer 2"><g id="Layer_1-2" data-name="Layer 1"><path class="cls-1" d="M70.69,19.51V8.1a6.52,6.52,0,1,0-13,.18c0,7.44,0,14.87,0,22.3a2.74,2.74,0,0,1-1.46,2.63,14.62,14.62,0,0,0,11.7,26.4c5.41-1.53,9-5,10.32-10.16C79.86,43.23,77,36.89,71.86,33a2.64,2.64,0,0,1-1.19-2.43C70.73,26.91,70.69,23.21,70.69,19.51Z"/><polyline class="cls-2" points="8.84 55.69 14.51 49.71 20.1 55.52"/><polyline class="cls-2" points="20.1 32.28 14.42 38.26 8.84 32.45"/><line class="cls-2" x1="14.42" y1="29.42" x2="14.42" y2="58.35"/><polyline class="cls-2" points="26.27 49.52 20.3 43.84 26.1 38.26"/><polyline class="cls-2" points="2.86 38.26 8.84 43.93 3.03 49.52"/><line class="cls-2" y1="43.93" x2="28.94" y2="43.93"/><polyline class="cls-2" points="21.41 26.76 27.08 20.78 32.67 26.58"/><polyline class="cls-2" points="32.67 3.34 26.99 9.32 21.41 3.52"/><line class="cls-2" x1="26.99" y1="0.48" x2="26.99" y2="29.42"/><polyline class="cls-2" points="38.84 20.58 32.86 14.91 38.67 9.32"/><polyline class="cls-2" points="15.43 9.32 21.41 14.99 15.6 20.58"/><line class="cls-2" x1="12.57" y1="14.99" x2="41.51" y2="14.99"/><path class="cls-2" d="M70.69,19.51V8.1a6.52,6.52,0,1,0-13,.18c0,7.44,0,14.87,0,22.3a2.74,2.74,0,0,1-1.46,2.63,14.62,14.62,0,0,0,11.7,26.4c5.41-1.53,9-5,10.32-10.16C79.86,43.23,77,36.89,71.86,33a2.64,2.64,0,0,1-1.19-2.43C70.73,26.91,70.69,23.21,70.69,19.51Z"/><path class="cls-3" d="M63.83,10.53V35.94c0,1.37-.28,1.72-1.49,1.83C59.82,38,57.1,40,56.76,44.51"/><path class="cls-3" d="M63.68,51.4a7,7,0,0,0,6.77-6.8"/></g></g></svg>