<svg xmlns="http://www.w3.org/2000/svg" viewBox="0 0 101.39 107.33"><defs><style>.cls-1{fill:#f5b952;}.cls-2{fill:#cae3f6;}.cls-3,.cls-4,.cls-5,.cls-6,.cls-7{fill:none;stroke-miterlimit:10;}.cls-3,.cls-4,.cls-5,.cls-6{stroke:#000;}.cls-3{stroke-width:1.5px;}.cls-4{stroke-width:2px;}.cls-5,.cls-6,.cls-7{stroke-width:4px;}.cls-6{stroke-linecap:square;}.cls-7{stroke:#0a0b0b;}</style></defs><title>snow-showers-dayAsset 177colored</title><g id="Layer_2" data-name="Layer 2"><g id="Layer_1-2" data-name="Layer 1"><path class="cls-1" d="M36.06,14.12a22,22,0,1,0,22,22A22,22,0,0,0,36.06,14.12Z"/><path class="cls-2" d="M80.8,68.47H34.08a6.58,6.58,0,0,1-5.3-3.27,8.61,8.61,0,0,1,8-13.22c1.41.07,1.7-.45,1.88-1.64a21.6,21.6,0,0,1,17.66-18l.11,0a21.28,21.28,0,0,1,14.3,3.08q.63.39,1.26.87a22.19,22.19,0,0,1,5.79,6.66l.68,1.16"/><path class="cls-2" d="M58.54,56.5a9.34,9.34,0,0,1,7.37-7.9,10.67,10.67,0,0,1,1.82-.13A9.4,9.4,0,0,1,74.18,51a9.12,9.12,0,0,1,2.55,4.32"/><path class="cls-2" d="M71.16,49.05c2.7-4.23,8.92-5.79,13.88-4.75a11.38,11.38,0,0,1,9,8.82c.63,2.78.83,3.84,2.95,5.33,3,2.12,2.8,6.86.36,9.1a3.79,3.79,0,0,1-2.34.91H78.86"/><line class="cls-2" x1="84.07" y1="68.46" x2="88.92" y2="68.46"/><polyline class="cls-3" points="71.3 106.2 73.7 103.67 76.07 106.13"/><polyline class="cls-3" points="76.07 96.29 73.67 98.82 71.3 96.36"/><line class="cls-3" x1="73.67" y1="95.08" x2="73.67" y2="107.33"/><polyline class="cls-3" points="78.68 103.59 76.15 101.19 78.61 98.82"/><polyline class="cls-3" points="68.77 98.82 71.3 101.22 68.84 103.59"/><line class="cls-3" x1="67.56" y1="101.22" x2="79.81" y2="101.22"/><polyline class="cls-3" points="52.39 106.2 54.8 103.67 57.16 106.13"/><polyline class="cls-3" points="57.16 96.29 54.76 98.82 52.39 96.36"/><line class="cls-3" x1="54.76" y1="95.08" x2="54.76" y2="107.33"/><polyline class="cls-3" points="59.77 103.59 57.24 101.19 59.7 98.82"/><polyline class="cls-3" points="49.86 98.82 52.39 101.22 49.94 103.59"/><line class="cls-3" x1="48.65" y1="101.22" x2="60.9" y2="101.22"/><polyline class="cls-4" points="87.11 90.27 90.42 86.79 93.68 90.17"/><polyline class="cls-4" points="93.68 76.62 90.37 80.11 87.11 76.73"/><line class="cls-4" x1="90.37" y1="74.96" x2="90.37" y2="91.83"/><polyline class="cls-4" points="97.28 86.67 93.79 83.37 97.18 80.11"/><polyline class="cls-4" points="83.63 80.11 87.11 83.42 83.73 86.67"/><line class="cls-4" x1="81.96" y1="83.42" x2="98.83" y2="83.42"/><polyline class="cls-4" points="61.07 90.27 64.38 86.79 67.64 90.17"/><polyline class="cls-4" points="67.64 76.62 64.33 80.11 61.07 76.73"/><line class="cls-4" x1="64.33" y1="74.96" x2="64.33" y2="91.83"/><polyline class="cls-4" points="71.24 86.67 67.75 83.37 71.13 80.11"/><polyline class="cls-4" points="57.59 80.11 61.07 83.42 57.69 86.67"/><line class="cls-4" x1="55.92" y1="83.42" x2="72.79" y2="83.42"/><polyline class="cls-4" points="35.03 90.27 38.34 86.79 41.59 90.17"/><polyline class="cls-4" points="41.59 76.62 38.29 80.11 35.03 76.73"/><line class="cls-4" x1="38.29" y1="74.96" x2="38.29" y2="91.83"/><polyline class="cls-4" points="45.19 86.67 41.71 83.37 45.09 80.11"/><polyline class="cls-4" points="31.54 80.11 35.03 83.42 31.64 86.67"/><line class="cls-4" x1="29.88" y1="83.42" x2="46.75" y2="83.42"/><path class="cls-5" d="M56.42,27.77A22,22,0,1,0,25.24,55.29"/><line class="cls-6" x1="35.97" y1="14.01" x2="35.97" y2="2"/><line class="cls-6" x1="14.01" y1="36.2" x2="2" y2="36.2"/><line class="cls-6" x1="20.4" y1="20.56" x2="11.9" y2="12.06"/><line class="cls-6" x1="51.61" y1="20.4" x2="60.1" y2="11.9"/><line class="cls-6" x1="20.56" y1="51.77" x2="12.06" y2="60.26"/><path class="cls-7" d="M81.13,68.63H34.82a6.53,6.53,0,0,1-5.26-3.18A8.4,8.4,0,0,1,29.2,57a8.69,8.69,0,0,1,8.33-4.43c1.4.07,1.69-.44,1.86-1.6A21.26,21.26,0,0,1,56.9,33.36l.11,0a21.37,21.37,0,0,1,14.18,3c.41.26.83.54,1.24.84a21.74,21.74,0,0,1,5.75,6.51l.67,1.13"/><path class="cls-7" d="M59.06,57a9.17,9.17,0,0,1,7.31-7.71,10.54,10.54,0,0,1,1.81-.14,9.47,9.47,0,0,1,6.39,2.47A9,9,0,0,1,77.1,55.8"/><path class="cls-7" d="M71.57,49.67C74.25,45.54,80.41,44,85.34,45a11.19,11.19,0,0,1,8.91,8.62c.63,2.71.83,3.75,2.93,5.2,3,2.07,2.78,6.7.36,8.89a3.83,3.83,0,0,1-2.32.89h-3"/><line class="cls-7" x1="84.38" y1="68.63" x2="89.18" y2="68.63"/></g></g></svg>