<svg xmlns="http://www.w3.org/2000/svg" viewBox="0 0 101.39 96.59"><defs><style>.cls-1{fill:#f5b952;}.cls-2{fill:#cae3f6;}.cls-3,.cls-4,.cls-5,.cls-6{fill:none;stroke-miterlimit:10;}.cls-3,.cls-4,.cls-5{stroke:#000;}.cls-3{stroke-linecap:round;stroke-width:3px;}.cls-4,.cls-5,.cls-6{stroke-width:4px;}.cls-5{stroke-linecap:square;}.cls-6{stroke:#0a0b0b;}</style></defs><title>showers-dayAsset 163colored</title><g id="Layer_2" data-name="Layer 2"><g id="Layer_1-2" data-name="Layer 1"><path class="cls-1" d="M36.52,13.88A22.63,22.63,0,1,0,59.15,36.5,22.65,22.65,0,0,0,36.52,13.88Z"/><path class="cls-2" d="M81.1,69H34.7a6.56,6.56,0,0,1-5.27-3.19,8.43,8.43,0,0,1-.36-8.51,8.72,8.72,0,0,1,8.35-4.43c1.4.07,1.69-.44,1.86-1.6a21.28,21.28,0,0,1,17.54-17.6l.11,0a21.46,21.46,0,0,1,14.21,3c.41.26.83.54,1.24.85A21.91,21.91,0,0,1,78.14,44l.67,1.14"/><path class="cls-2" d="M59,57.29a9.18,9.18,0,0,1,7.32-7.73,11.75,11.75,0,0,1,1.81-.14,9.48,9.48,0,0,1,6.4,2.48,9,9,0,0,1,2.54,4.23"/><path class="cls-2" d="M71.52,50c2.69-4.14,8.86-5.67,13.79-4.65A11.17,11.17,0,0,1,94.24,54c.63,2.72.83,3.76,2.94,5.22,3,2.07,2.78,6.7.35,8.9a3.83,3.83,0,0,1-2.32.89h-16"/><line class="cls-2" x1="84.35" y1="68.99" x2="89.16" y2="68.99"/><line class="cls-3" x1="85.22" y1="89.22" x2="79.02" y2="95.09"/><line class="cls-3" x1="43.01" y1="89.22" x2="36.81" y2="95.09"/><line class="cls-3" x1="64.12" y1="89.22" x2="57.91" y2="95.09"/><line class="cls-3" x1="85.22" y1="76.43" x2="79.02" y2="82.31"/><line class="cls-3" x1="43.01" y1="76.43" x2="36.81" y2="82.31"/><line class="cls-3" x1="64.12" y1="76.43" x2="57.91" y2="82.31"/><path class="cls-4" d="M56.42,27.77A22,22,0,1,0,25.24,55.29"/><line class="cls-5" x1="35.97" y1="14.01" x2="35.97" y2="2"/><line class="cls-5" x1="14.01" y1="36.2" x2="2" y2="36.2"/><line class="cls-5" x1="20.4" y1="20.56" x2="11.9" y2="12.06"/><line class="cls-5" x1="51.61" y1="20.4" x2="60.1" y2="11.9"/><line class="cls-5" x1="20.56" y1="51.77" x2="12.06" y2="60.26"/><path class="cls-6" d="M81.13,68.63H34.82a6.53,6.53,0,0,1-5.26-3.18A8.4,8.4,0,0,1,29.2,57a8.69,8.69,0,0,1,8.33-4.43c1.4.07,1.69-.44,1.86-1.6A21.26,21.26,0,0,1,56.9,33.36l.11,0a21.37,21.37,0,0,1,14.18,3c.41.26.83.54,1.24.84a21.74,21.74,0,0,1,5.75,6.51l.67,1.13"/><path class="cls-6" d="M59.06,57a9.17,9.17,0,0,1,7.31-7.71,10.54,10.54,0,0,1,1.81-.14,9.47,9.47,0,0,1,6.39,2.47A9,9,0,0,1,77.1,55.8"/><path class="cls-6" d="M71.57,49.67C74.25,45.54,80.41,44,85.34,45a11.19,11.19,0,0,1,8.91,8.62c.63,2.71.83,3.75,2.93,5.2,3,2.07,2.78,6.7.36,8.89a3.83,3.83,0,0,1-2.32.89h-3"/><line class="cls-6" x1="84.38" y1="68.63" x2="89.18" y2="68.63"/></g></g></svg>