<svg xmlns="http://www.w3.org/2000/svg" viewBox="0 0 79.62 70.92"><defs><style>.cls-1{fill:#f5b952;}.cls-2{fill:#cae3f6;}.cls-3,.cls-4,.cls-5{fill:none;stroke-miterlimit:10;}.cls-3,.cls-5{stroke:#000;stroke-width:3px;}.cls-4{stroke:#0a0b0b;stroke-width:4px;}.cls-5{stroke-linecap:round;}</style></defs><title>thunder-rainAsset 172colored</title><g id="Layer_2" data-name="Layer 2"><g id="Layer_1-2" data-name="Layer 1"><path class="cls-1" d="M37.1,68.63c1.92-2,7.83-8.42,7.83-8.42h0c1.36-1.47,2.67-2.89,4-4.3a1.29,1.29,0,0,0,.39-1.57,1.34,1.34,0,0,0-1.49-.69c-.43.05-.86.07-1.38.11.14-.28.23-.48.33-.67l2.59-5c.58-1.13.06-2-1.18-2-3,0-6,0-9,0a1.41,1.41,0,0,0-1.42.88c-1.66,3.42-3.33,6.84-5,10.25A1.24,1.24,0,0,0,34,59.18h3.6c-.19.61-.35,1.17-.56,1.72L36,64.24c-.39,1.22-.81,2.34-1.09,3.48a1.44,1.44,0,0,0,.34,1.17,1.77,1.77,0,0,0,1.2.27C36.65,69.14,36.9,68.85,37.1,68.63Z"/><path class="cls-2" d="M57.8,39.92H9.08a6.88,6.88,0,0,1-5.53-3.4,9,9,0,0,1,8.39-13.79c1.46.07,1.77-.47,2-1.71A22.53,22.53,0,0,1,32.31,2.26l.11,0A22.24,22.24,0,0,1,47.34,5.45c.44.27.87.58,1.31.9a23.18,23.18,0,0,1,6,7l.71,1.21"/><path class="cls-2" d="M34.58,27.44a9.73,9.73,0,0,1,7.69-8.23,11.72,11.72,0,0,1,1.9-.15,9.9,9.9,0,0,1,6.72,2.64,9.57,9.57,0,0,1,2.67,4.52"/><path class="cls-2" d="M47.74,19.67c2.82-4.4,9.3-6,14.48-5a11.85,11.85,0,0,1,9.38,9.2c.66,2.9.87,4,3.08,5.56,3.14,2.21,2.92,7.15.38,9.48a3.87,3.87,0,0,1-2.44.95H55.77"/><line class="cls-2" x1="61.21" y1="39.91" x2="66.26" y2="39.91"/><path class="cls-3" d="M37.1,68.88c1.92-2,7.83-8.42,7.83-8.42h0l4-4.29a1.31,1.31,0,0,0,.39-1.58,1.34,1.34,0,0,0-1.49-.68l-1.38.1.33-.66,2.59-5c.58-1.12.06-2-1.18-2-3,0-6,0-9,0a1.39,1.39,0,0,0-1.42.88c-1.66,3.42-3.33,6.83-5,10.25A1.23,1.23,0,0,0,34,59.43h3.6c-.19.61-.35,1.18-.56,1.72L36,64.49c-.39,1.23-.81,2.34-1.09,3.49a1.46,1.46,0,0,0,.34,1.17,1.76,1.76,0,0,0,1.2.26C36.65,69.39,36.9,69.1,37.1,68.88Z"/><path class="cls-4" d="M58.22,39.72H9a7,7,0,0,1-5.59-3.38,9,9,0,0,1-.38-9,9.25,9.25,0,0,1,8.86-4.71c1.48.08,1.79-.46,2-1.69A22.6,22.6,0,0,1,32.47,2.24h.12A22.69,22.69,0,0,1,47.66,5.42q.66.41,1.32.9a23.26,23.26,0,0,1,6.11,6.91l.71,1.2"/><path class="cls-4" d="M34.77,27.31a9.73,9.73,0,0,1,7.77-8.2A10.79,10.79,0,0,1,44.46,19a10.05,10.05,0,0,1,6.79,2.62,9.68,9.68,0,0,1,2.69,4.49"/><path class="cls-4" d="M48.06,19.57c2.85-4.38,9.4-6,14.63-4.92a11.85,11.85,0,0,1,9.47,9.15c.67,2.89.88,4,3.11,5.53,3.18,2.2,3,7.12.39,9.44a4,4,0,0,1-2.47.95H70"/><line class="cls-4" x1="61.67" y1="39.72" x2="66.77" y2="39.72"/><line class="cls-5" x1="63.46" y1="60.2" x2="57.25" y2="66.08"/><line class="cls-5" x1="21.24" y1="60.2" x2="15.04" y2="66.08"/><line class="cls-5" x1="63.46" y1="47.41" x2="57.25" y2="53.29"/><line class="cls-5" x1="21.24" y1="47.41" x2="15.04" y2="53.29"/></g></g></svg>