<svg xmlns="http://www.w3.org/2000/svg" viewBox="0 0 79.62 70.44"><defs><style>.cls-1{fill:#f5b952;}.cls-2{fill:#cae3f6;}.cls-3,.cls-4{fill:none;stroke-miterlimit:10;}.cls-3{stroke:#000;stroke-width:3px;}.cls-4{stroke:#231f20;stroke-width:4px;}</style></defs><title>thunderAsset 171colored</title><g id="Layer_2" data-name="Layer 2"><g id="Layer_1-2" data-name="Layer 1"><path class="cls-1" d="M37.1,68.4C39,66.36,44.93,60,44.93,60h0l4-4.29a1.31,1.31,0,0,0,.39-1.58,1.34,1.34,0,0,0-1.49-.68l-1.38.1.33-.66,2.59-5c.58-1.12.06-2-1.18-2-3,0-6,0-9,0a1.41,1.41,0,0,0-1.42.89c-1.66,3.42-3.33,6.83-5,10.25A1.23,1.23,0,0,0,34,59h3.6c-.19.61-.35,1.18-.56,1.72L36,64c-.39,1.23-.81,2.34-1.09,3.49a1.46,1.46,0,0,0,.34,1.17,1.76,1.76,0,0,0,1.2.26C36.65,68.91,36.9,68.62,37.1,68.4Z"/><path class="cls-2" d="M57.8,39.69H9.08a6.88,6.88,0,0,1-5.53-3.4A9,9,0,0,1,11.94,22.5c1.46.08,1.77-.47,2-1.7A22.53,22.53,0,0,1,32.31,2h.11A22.13,22.13,0,0,1,47.34,5.23c.44.27.87.57,1.31.89a23.3,23.3,0,0,1,6,7l.71,1.21"/><path class="cls-2" d="M34.58,27.22A9.74,9.74,0,0,1,42.27,19a10.64,10.64,0,0,1,1.9-.14,9.81,9.81,0,0,1,6.72,2.64A9.54,9.54,0,0,1,53.56,26"/><path class="cls-2" d="M47.74,19.45c2.82-4.41,9.3-6,14.48-4.95a11.82,11.82,0,0,1,9.38,9.19c.66,2.9.87,4,3.08,5.56,3.14,2.21,2.92,7.15.38,9.49a4,4,0,0,1-2.44.95H55.77"/><line class="cls-2" x1="61.21" y1="39.69" x2="66.26" y2="39.69"/><path class="cls-3" d="M37.1,68.4C39,66.36,44.93,60,44.93,60h0l4-4.29a1.31,1.31,0,0,0,.39-1.58,1.34,1.34,0,0,0-1.49-.68l-1.38.1.33-.66,2.59-5c.58-1.12.06-2-1.18-2-3,0-6,0-9,0a1.41,1.41,0,0,0-1.42.89c-1.66,3.42-3.33,6.83-5,10.25A1.23,1.23,0,0,0,34,59h3.6c-.19.61-.35,1.18-.56,1.72L36,64c-.39,1.23-.81,2.34-1.09,3.49a1.46,1.46,0,0,0,.34,1.17,1.76,1.76,0,0,0,1.2.26C36.65,68.91,36.9,68.62,37.1,68.4Z"/><path class="cls-4" d="M58.22,39.72H9a7,7,0,0,1-5.59-3.38,9,9,0,0,1-.38-9,9.25,9.25,0,0,1,8.86-4.71c1.48.08,1.79-.46,2-1.69A22.6,22.6,0,0,1,32.47,2.24h.12A22.69,22.69,0,0,1,47.66,5.42q.66.41,1.32.9a23.26,23.26,0,0,1,6.11,6.91l.71,1.2"/><path class="cls-4" d="M34.77,27.31a9.73,9.73,0,0,1,7.77-8.2A10.79,10.79,0,0,1,44.46,19a10.05,10.05,0,0,1,6.79,2.62,9.68,9.68,0,0,1,2.69,4.49"/><path class="cls-4" d="M48.06,19.57c2.85-4.38,9.4-6,14.63-4.92a11.85,11.85,0,0,1,9.47,9.15c.67,2.89.88,4,3.11,5.53,3.18,2.2,3,7.12.39,9.44a4,4,0,0,1-2.47.95H70"/><line class="cls-4" x1="61.67" y1="39.72" x2="66.77" y2="39.72"/></g></g></svg>