<?xml version="1.0" encoding="utf-8"?>
<!-- Generator: Adobe Illustrator 19.0.0, SVG Export Plug-In . SVG Version: 6.00 Build 0)  -->
<svg version="1.1" id="Layer_1" xmlns="http://www.w3.org/2000/svg" xmlns:xlink="http://www.w3.org/1999/xlink" x="0px" y="0px"
	 viewBox="16 -12.8 95.9 88.8" style="enable-background:new 16 -12.8 95.9 88.8;" xml:space="preserve">
<style type="text/css">
	.st0{fill:#EAD88C;}
	.st1{fill:none;stroke:#000000;stroke-width:3;stroke-miterlimit:10;}
	.st2{fill:none;}
	.st3{fill:#F5B952;}
	.st4{fill:#CAE3F6;}
	.st5{fill:none;stroke:#000000;stroke-width:2;stroke-miterlimit:10;}
	.st6{fill:none;stroke:#000000;stroke-width:3;stroke-linecap:round;stroke-miterlimit:10;}
	.st7{fill:none;stroke:#0A0B0B;stroke-width:4;stroke-miterlimit:10;}
</style>
<g>
	<g>
		<path class="st0" d="M39.9-9.2c-12.8,1.5-22,12.9-20.8,25.8c1.2,12.8,12.7,22.1,25.4,20.7c3-0.4,5.7-1.2,8.5-2.7
			c-1.6-1.1-3-2.3-4.3-3.7c-4.5-4.2-7.6-9.6-8.6-15.7C39,7.8,41,0.7,43.3-4.2c0.8-1.6,1.6-3.4,2.6-4.9C44-9.5,41.9-9.5,39.9-9.2z"/>
		<path class="st1" d="M39.9-9.2c-12.8,1.5-22,12.9-20.8,25.8c1.2,12.8,12.7,22.1,25.4,20.7c3-0.4,5.7-1.2,8.5-2.7
			c-1.6-1.1-3-2.3-4.3-3.7c-4.5-4.2-7.6-9.6-8.6-15.7C39,7.8,41,0.7,43.3-4.2c0.8-1.6,1.6-3.4,2.6-4.9C44-9.5,41.9-9.5,39.9-9.2z"/>
		<path class="st2" d="M61-6.8l-0.4-0.3c-5-3.6-11.1-5.2-18.3-4.6c-3.9,0.3-11.3,4-11.5,4.2c-9.2,5.4-13.9,17.9-10.9,28.9
			c0.3,1,0.6,1.9,1,2.9c1.4,3.6,3.7,6.9,6.6,9.5"/>
	</g>
	<path class="st3" d="M69.6,75.6c1.9-2,7.8-8.4,7.8-8.4l0,0c1.4-1.5,2.7-2.9,4-4.3c0.5-0.4,0.7-1,0.4-1.6c-0.3-0.5-0.9-0.8-1.5-0.7
		c-0.4,0-0.9,0.1-1.4,0.1c0.1-0.3,0.2-0.5,0.3-0.7c0.9-1.7,1.7-3.3,2.6-5c0.6-1.1,0.1-2-1.2-2c-3,0-6,0-8.9,0
		c-0.6,0-1.2,0.3-1.4,0.9c-1.7,3.4-3.3,6.8-5,10.2c-0.4,0.6-0.3,1.3,0.3,1.7c0.3,0.2,0.6,0.3,0.9,0.2h3.6c-0.2,0.6-0.3,1.2-0.6,1.7
		L68.4,71c-0.4,1.2-0.8,2.3-1.1,3.5c-0.1,0.4,0,0.9,0.3,1.2c0.4,0.2,0.8,0.3,1.2,0.3C69.1,76.1,69.4,75.8,69.6,75.6z"/>
	<path class="st4" d="M90.7,48.5H41.8c-2.3-0.2-4.4-1.4-5.6-3.4c-2.7-4.2-1.5-9.7,2.7-12.4c1.7-1.1,3.7-1.6,5.8-1.4
		c1.5,0.1,1.8-0.5,2-1.7c1.5-9.6,8.9-17.1,18.4-18.8h0.1c5.2-0.7,10.5,0.4,15,3.2c0.4,0.3,0.9,0.6,1.3,0.9c2.5,1.9,4.5,4.3,6.1,7
		l0.7,1.2"/>
	<path class="st4" d="M67.4,36c0.6-4.1,3.7-7.4,7.7-8.3c0.6-0.1,1.3-0.2,1.9-0.1c2.5,0,5,0.9,6.8,2.7c1.3,1.2,2.2,2.8,2.7,4.5"/>
	<path class="st4" d="M80.6,28.2c2.8-4.4,9.3-6.1,14.5-5c4.7,0.9,8.5,4.6,9.4,9.3c0.7,2.9,0.9,4,3.1,5.6c3.1,2.2,2.9,7.2,0.4,9.5
		c-0.7,0.6-1.5,1-2.5,1H88.6"/>
	<line class="st2" x1="94.1" y1="46.5" x2="99.2" y2="46.5"/>
	<path class="st5" d="M70.2,75.3c1.9-2,7.8-8.4,7.8-8.4l0,0c1.4-1.5,2.7-2.9,4-4.3c0.5-0.4,0.6-1,0.4-1.6c-0.3-0.5-0.9-0.8-1.5-0.7
		c-0.4,0-0.9,0.1-1.4,0.1l0.3-0.7c0.9-1.7,1.7-3.3,2.6-5c0.6-1.1,0.1-2-1.2-2c-3,0-6,0-8.9,0c-0.6,0-1.2,0.3-1.4,0.9
		c-1.6,3.4-3.3,6.8-5,10.3c-0.4,0.6-0.3,1.3,0.3,1.7c0.3,0.2,0.6,0.3,0.9,0.2h3.6c-0.2,0.6-0.4,1.2-0.6,1.7L69,70.8
		c-0.4,1.2-0.8,2.3-1.1,3.5c-0.1,0.4,0,0.9,0.3,1.2c0.4,0.2,0.8,0.3,1.2,0.3C69.7,75.8,70,75.5,70.2,75.3z"/>
	<line class="st6" x1="96.5" y1="66.6" x2="90.3" y2="72.5"/>
	<line class="st6" x1="54.3" y1="66.6" x2="48.1" y2="72.5"/>
	<line class="st6" x1="96.5" y1="53.8" x2="90.3" y2="59.7"/>
	<line class="st6" x1="54.3" y1="53.8" x2="48.1" y2="59.7"/>
	<path class="st7" d="M90.3,48.4H41.1c-2.3-0.1-4.4-1.4-5.6-3.4c-1.7-2.7-1.9-6.2-0.4-9c1.8-3.2,5.2-5,8.8-4.7
		c1.5,0.1,1.8-0.5,2-1.7c1.5-9.6,9-17.1,18.6-18.7h0.1c5.2-0.7,10.6,0.4,15.1,3.2c0.4,0.3,0.9,0.6,1.3,0.9c2.5,1.9,4.6,4.2,6.1,6.9
		l0.7,1.2"/>
	<path class="st7" d="M66.9,36c0.6-4.1,3.7-7.4,7.8-8.2c0.6-0.1,1.3-0.2,1.9-0.1c2.5,0,4.9,0.9,6.8,2.6c1.3,1.2,2.2,2.8,2.7,4.5"/>
	<path class="st7" d="M80.1,28.2c2.9-4.4,9.4-6,14.6-4.9c4.7,0.9,8.4,4.5,9.5,9.2c0.7,2.9,0.9,4,3.1,5.5c3.2,2.2,3,7.1,0.4,9.4
		c-0.7,0.6-1.6,0.9-2.5,0.9H102"/>
	<line class="st7" x1="93.7" y1="46.4" x2="98.8" y2="46.4"/>
</g>
</svg>
