<svg xmlns="http://www.w3.org/2000/svg" viewBox="0 0 101.39 100.33"><defs><style>.cls-1{fill:#f5b952;}.cls-2{fill:#cae3f6;}.cls-3,.cls-4,.cls-5,.cls-6,.cls-7{fill:none;stroke-miterlimit:10;}.cls-3,.cls-4,.cls-5,.cls-6{stroke:#000;}.cls-3,.cls-4{stroke-width:3px;}.cls-4{stroke-linecap:round;}.cls-5,.cls-6,.cls-7{stroke-width:4px;}.cls-6{stroke-linecap:square;}.cls-7{stroke:#0a0b0b;}</style></defs><title>thunder-showers-dayAsset 173colored</title><g id="Layer_2" data-name="Layer 2"><g id="Layer_1-2" data-name="Layer 1"><path class="cls-1" d="M59.25,98.43c1.92-2,7.83-8.42,7.83-8.42h0c1.36-1.47,2.67-2.89,4-4.3a1.29,1.29,0,0,0,.39-1.57A1.34,1.34,0,0,0,70,83.45c-.43,0-.86.07-1.38.11.14-.28.23-.48.33-.67l2.59-5c.58-1.13.06-2-1.18-2-3,0-6,0-8.95,0a1.41,1.41,0,0,0-1.42.89c-1.66,3.41-3.33,6.83-5,10.24A1.24,1.24,0,0,0,56.17,89h3.6c-.19.61-.35,1.17-.56,1.72L58.11,94c-.4,1.22-.82,2.34-1.1,3.48a1.44,1.44,0,0,0,.34,1.17,1.77,1.77,0,0,0,1.2.27C58.8,98.94,59.05,98.65,59.25,98.43Z"/><path class="cls-1" d="M35.74,14.58a22,22,0,1,0,22,22A22,22,0,0,0,35.74,14.58Z"/><path class="cls-2" d="M81.39,69.14H35a6.57,6.57,0,0,1-5.27-3.24,8.54,8.54,0,0,1,8-13.12c1.4.07,1.69-.45,1.86-1.63A21.44,21.44,0,0,1,57.12,33.3l.11,0a21,21,0,0,1,14.2,3.06c.42.25.83.54,1.25.85a22.12,22.12,0,0,1,5.75,6.61L79.1,45"/><path class="cls-2" d="M59.29,57.27a9.25,9.25,0,0,1,7.32-7.84,10.54,10.54,0,0,1,1.81-.14,9.41,9.41,0,0,1,6.4,2.51,9.11,9.11,0,0,1,2.53,4.3"/><path class="cls-2" d="M71.81,49.87c2.69-4.2,8.86-5.74,13.79-4.71a11.26,11.26,0,0,1,8.92,8.75c.63,2.76.83,3.81,2.93,5.29,3,2.1,2.78,6.8.36,9a3.78,3.78,0,0,1-2.32.9h-16"/><line class="cls-2" x1="84.64" y1="69.13" x2="89.44" y2="69.13"/><path class="cls-3" d="M59.87,98.3c1.91-2,7.83-8.42,7.83-8.42h0c1.36-1.47,2.67-2.89,4-4.3A1.28,1.28,0,0,0,72.07,84a1.33,1.33,0,0,0-1.48-.69c-.43.05-.87.07-1.38.11l.33-.67c.86-1.66,1.73-3.31,2.58-5,.58-1.13.07-2-1.18-2-3,0-6,0-8.94,0a1.43,1.43,0,0,0-1.43.89c-1.65,3.42-3.32,6.83-5,10.25a1.23,1.23,0,0,0,1.18,1.92h3.61c-.19.61-.36,1.17-.56,1.72l-1.11,3.34c-.39,1.22-.81,2.34-1.09,3.48A1.4,1.4,0,0,0,58,98.56a1.79,1.79,0,0,0,1.21.27C59.41,98.81,59.67,98.52,59.87,98.3Z"/><line class="cls-4" x1="86.22" y1="89.62" x2="80.02" y2="95.49"/><line class="cls-4" x1="44.01" y1="89.62" x2="37.81" y2="95.49"/><line class="cls-4" x1="86.22" y1="76.83" x2="80.02" y2="82.71"/><line class="cls-4" x1="44.01" y1="76.83" x2="37.81" y2="82.71"/><path class="cls-5" d="M56.42,27.77A22,22,0,1,0,25.24,55.29"/><line class="cls-6" x1="35.97" y1="14.01" x2="35.97" y2="2"/><line class="cls-6" x1="14.01" y1="36.2" x2="2" y2="36.2"/><line class="cls-6" x1="20.4" y1="20.56" x2="11.9" y2="12.06"/><line class="cls-6" x1="51.61" y1="20.4" x2="60.1" y2="11.9"/><line class="cls-6" x1="20.56" y1="51.77" x2="12.06" y2="60.26"/><path class="cls-7" d="M81.13,68.63H34.82a6.53,6.53,0,0,1-5.26-3.18A8.4,8.4,0,0,1,29.2,57a8.69,8.69,0,0,1,8.33-4.43c1.4.07,1.69-.44,1.86-1.6A21.26,21.26,0,0,1,56.9,33.36l.11,0a21.37,21.37,0,0,1,14.18,3c.41.26.83.54,1.24.84a21.74,21.74,0,0,1,5.75,6.51l.67,1.13"/><path class="cls-7" d="M59.06,57a9.17,9.17,0,0,1,7.31-7.71,10.54,10.54,0,0,1,1.81-.14,9.47,9.47,0,0,1,6.39,2.47A9,9,0,0,1,77.1,55.8"/><path class="cls-7" d="M71.57,49.67C74.25,45.54,80.41,44,85.34,45a11.19,11.19,0,0,1,8.91,8.62c.63,2.71.83,3.75,2.93,5.2,3,2.07,2.78,6.7.36,8.89a3.83,3.83,0,0,1-2.32.89h-3"/><line class="cls-7" x1="84.38" y1="68.63" x2="89.18" y2="68.63"/></g></g></svg>