<svg xmlns="http://www.w3.org/2000/svg" viewBox="0 0 94.85 66.53"><defs><style>.cls-1{fill:#cae3f6;}.cls-2,.cls-3{fill:none;stroke-miterlimit:10;}.cls-2{stroke:#000;stroke-linecap:round;stroke-width:3px;}.cls-3{stroke:#0a0b0b;stroke-width:4px;}</style></defs><title>windAsset 169colored</title><g id="Layer_2" data-name="Layer 2"><g id="Layer_1-2" data-name="Layer 1"><path class="cls-1" d="M58.31,39.74H9.59a6.88,6.88,0,0,1-5.53-3.4,9,9,0,0,1,8.39-13.79c1.47.07,1.77-.47,2-1.71A22.53,22.53,0,0,1,32.82,2.08l.11,0A22.24,22.24,0,0,1,47.85,5.27c.44.27.88.58,1.31.9a23.18,23.18,0,0,1,6,7l.71,1.21"/><path class="cls-1" d="M35.09,27.27A9.73,9.73,0,0,1,42.78,19a11.72,11.72,0,0,1,1.9-.15,9.88,9.88,0,0,1,6.72,2.64A9.57,9.57,0,0,1,54.07,26"/><path class="cls-1" d="M48.25,19.49c2.82-4.4,9.31-6,14.48-4.95a11.85,11.85,0,0,1,9.38,9.2c.66,2.9.87,4,3.08,5.56,3.14,2.21,2.92,7.15.38,9.48a3.87,3.87,0,0,1-2.44.95H56.28"/><line class="cls-1" x1="61.72" y1="39.73" x2="66.77" y2="39.73"/><path class="cls-2" d="M58.7,53.08c-2.65,0-5.3,0-8,0"/><path class="cls-2" d="M50.75,47.79c1.43,0,2.87,0,4.31,0"/><path class="cls-2" d="M61,47.8q12.51,0,25,0a7.38,7.38,0,0,0,6.33-3.15,5.85,5.85,0,0,0-1.27-8,4.44,4.44,0,0,0-5.76.49,3.29,3.29,0,0,0,0,4.57,2.36,2.36,0,0,0,3.34.1"/><path class="cls-2" d="M75.85,59.15a2.48,2.48,0,0,0-3-.43,3.25,3.25,0,0,0-1.42,3.05A3.91,3.91,0,0,0,74.77,65a4.83,4.83,0,0,0,5.42-3.65,6.07,6.07,0,0,0-3-7.13,8,8,0,0,0-4.07-1.1H64.4"/><path class="cls-3" d="M58.22,39.72H9a7,7,0,0,1-5.59-3.38,9,9,0,0,1-.38-9,9.25,9.25,0,0,1,8.86-4.71c1.48.08,1.79-.46,2-1.69A22.6,22.6,0,0,1,32.47,2.24h.12A22.69,22.69,0,0,1,47.66,5.42q.66.41,1.32.9a23.26,23.26,0,0,1,6.11,6.91l.71,1.2"/><path class="cls-3" d="M34.77,27.31a9.73,9.73,0,0,1,7.77-8.2A10.79,10.79,0,0,1,44.46,19a10.05,10.05,0,0,1,6.79,2.62,9.68,9.68,0,0,1,2.69,4.49"/><path class="cls-3" d="M48.06,19.57c2.85-4.38,9.4-6,14.63-4.92a11.85,11.85,0,0,1,9.47,9.15c.67,2.89.88,4,3.11,5.53,3.18,2.2,3,7.12.39,9.44a4,4,0,0,1-2.47.95H70"/><line class="cls-3" x1="61.67" y1="39.72" x2="66.77" y2="39.72"/></g></g></svg>