<svg id="Capa_1" enable-background="new 0 0 512 512" height="512"
     viewBox="0 0 512 512" width="512" xmlns="http://www.w3.org/2000/svg">
    <path d="m466.916 27.803h-421.832c-24.859 0-45.084 20.225-45.084 45.084v366.226c0 24.859 20.225 45.084 45.084 45.084h421.832c24.859 0 45.084-20.225 45.084-45.084v-366.226c0-24.859-20.225-45.084-45.084-45.084z"
          fill="#f0f9ff"/>
    <path d="m198.58 188.334-181.344-150.862c-7.75 6.107-13.456 14.691-15.905 24.554l164.142 136.551h33.102z"
          fill="#f40055"/>
    <path d="m313.425 198.576h33.93l163.447-135.973c-2.325-9.923-7.93-18.592-15.613-24.796l-181.764 151.211z"
          fill="#c20044"/>
    <path d="m165.472 313.425-164.141 136.549c2.449 9.863 8.155 18.447 15.905 24.553l181.344-150.861-.005-10.241z"
          fill="#f40055"/>
    <path d="m313.425 313.425v9.557l181.765 151.211c7.683-6.204 13.288-14.874 15.613-24.796l-163.446-135.971z"
          fill="#c20044"/>
    <path d="m53.273 27.803 145.302 120.879v-120.879z" fill="#406bd4"/>
    <path d="m313.425 150.571v-122.768h148.082z" fill="#3257b0"/>
    <path d="m394.732 198.575 117.268-97.556v97.556z" fill="#3257b0"/>
    <g fill="#406bd4">
        <path d="m0 99.317v99.258h119.313z"/>
        <path d="m0 313.425v97.699l117.44-97.699z"/>
        <path d="m50.49 484.197 148.085-122.676v122.676z"/>
    </g>
    <path d="m313.425 484.197v-124.139l149.221 124.139z" fill="#3257b0"/>
    <path d="m512 409.423-115.395-95.998h115.395z" fill="#3257b0"/>
    <path d="m512 222.142h-222.142v-194.339h-67.716v194.339h-222.142v67.716h222.142v194.339h67.716v-194.339h222.142z"
          fill="#f40055"/>
    <path d="m289.858 222.142v-194.339h-33.858v456.394h33.858v-194.339h222.142v-67.716z"
          fill="#c20044"/>
</svg>
